<svg width="24" height="24" viewBox="0 0 24 24" fill="none" xmlns="http://www.w3.org/2000/svg">
<path d="M21.2322 19.1322H13.8864C14.0348 18.5424 13.8856 17.8923 13.425 17.4312L9.74268 13.7489C9.30249 13.3085 8.71649 13.0658 8.09295 13.0658H4.1998V12.5992C4.1998 11.8273 3.57172 11.1992 2.79987 11.1992H1.39993C0.628077 11.1992 0 11.8273 0 12.5992V21.932C0 22.7039 0.628077 23.332 1.39993 23.332H2.79987C3.57172 23.332 4.1998 22.7039 4.1998 21.932V20.0655H5.29308C5.66723 20.0655 6.01907 20.2111 6.28322 20.4752L8.45581 22.6485C8.89662 23.0893 9.48264 23.3319 10.1061 23.3319H21.232C22.3896 23.3319 23.3319 22.3897 23.3319 21.232C23.3319 20.0744 22.3896 19.1321 21.232 19.1321L21.2322 19.1322ZM3.26615 21.9321C3.26615 22.1892 3.05699 22.3987 2.79951 22.3987H1.39958C1.14209 22.3987 0.932931 22.1892 0.932931 21.9321V12.5992C0.932931 12.3421 1.14209 12.1326 1.39958 12.1326H2.79951C3.05699 12.1326 3.26615 12.3421 3.26615 12.5992V21.9321ZM21.2322 22.3987H10.1064C9.73221 22.3987 9.38037 22.2531 9.11622 21.989L6.94363 19.8157C6.50282 19.3749 5.9168 19.1322 5.29331 19.1322H4.20003V13.9992H8.09317C8.46732 13.9992 8.81917 14.1448 9.08331 14.4089L12.7656 18.0913C13.0983 18.424 13.0983 18.9654 12.7656 19.2981C12.433 19.6308 11.8915 19.6308 11.5588 19.2981L8.72957 16.4688C8.54708 16.2863 8.2521 16.2863 8.06982 16.4688C7.88732 16.6513 7.88732 16.9463 8.06982 17.1286L10.8991 19.9578C11.2472 20.3064 11.7048 20.4805 12.1624 20.4805C12.5661 20.4805 12.9655 20.3368 13.294 20.0658L21.2328 20.0655C21.8763 20.0655 22.3994 20.5891 22.3994 21.2322C22.3994 21.8752 21.8763 22.3988 21.2328 22.3988L21.2322 22.3987Z" fill="#111AE9"/>
<path d="M1.86508 13.0659C1.60697 13.0659 1.39844 13.2751 1.39844 13.5326V14.5242C1.39844 14.7817 1.60697 14.9908 1.86508 14.9908C2.12319 14.9908 2.33173 14.7817 2.33173 14.5242V13.5326C2.33173 13.2751 2.12319 13.0659 1.86508 13.0659Z" fill="#111AE9"/>
<path d="M18.1975 7.93311C15.3673 7.93311 13.0645 10.2359 13.0645 13.0662C13.0645 15.8965 15.3673 18.1993 18.1975 18.1993C21.0278 18.1993 23.3306 15.8965 23.3306 13.0662C23.3306 10.2359 21.0278 7.93311 18.1975 7.93311ZM18.1975 17.266C15.8816 17.266 13.9977 15.3817 13.9977 13.0662C13.9977 10.7507 15.8816 8.86639 18.1975 8.86639C20.5135 8.86639 22.3973 10.7507 22.3973 13.0662C22.3973 15.3817 20.5135 17.266 18.1975 17.266Z" fill="#111AE9"/>
<path d="M18.1986 10.733C18.7134 10.733 19.1319 11.1515 19.1319 11.6662C19.1319 11.9237 19.3404 12.1329 19.5985 12.1329C19.8567 12.1329 20.0652 11.9237 20.0652 11.6662C20.0652 10.7992 19.4684 10.0744 18.6653 9.8659V9.79965C18.6653 9.54217 18.4567 9.33301 18.1986 9.33301C17.9405 9.33301 17.732 9.54217 17.732 9.79965V9.8659C16.9289 10.0744 16.332 10.7992 16.332 11.6662C16.332 12.6956 17.1693 13.5328 18.1986 13.5328C18.7134 13.5328 19.1319 13.9513 19.1319 14.4661C19.1319 14.9809 18.7134 15.3994 18.1986 15.3994C17.6838 15.3994 17.2653 14.9809 17.2653 14.4661C17.2653 14.2086 17.0568 13.9995 16.7987 13.9995C16.5406 13.9995 16.332 14.2086 16.332 14.4661C16.332 15.3332 16.9289 16.0579 17.732 16.2664V16.3327C17.732 16.5902 17.9405 16.7993 18.1986 16.7993C18.4567 16.7993 18.6653 16.5902 18.6653 16.3327V16.2664C19.4684 16.0579 20.0652 15.3332 20.0652 14.4661C20.0652 13.4368 19.2279 12.5995 18.1986 12.5995C17.6838 12.5995 17.2653 12.181 17.2653 11.6662C17.2653 11.1515 17.6838 10.733 18.1986 10.733Z" fill="#111AE9"/>
<path d="M18.1991 7.46652C18.4572 7.46652 18.6657 7.25736 18.6657 6.99988V5.59995C18.6657 5.34246 18.4572 5.1333 18.1991 5.1333C17.941 5.1333 17.7324 5.34246 17.7324 5.59995V6.99988C17.7324 7.25736 17.941 7.46652 18.1991 7.46652Z" fill="#111AE9"/>
<path d="M22.8651 3.2666C22.607 3.2666 22.3984 3.47576 22.3984 3.73325V9.33298C22.3984 9.59046 22.607 9.79962 22.8651 9.79962C23.1232 9.79962 23.3317 9.59046 23.3317 9.33298V3.73325C23.3317 3.47576 23.1232 3.2666 22.8651 3.2666Z" fill="#111AE9"/>
<path d="M7.93222 12.1325C10.2482 12.1325 12.132 10.2482 12.132 7.93271C12.132 5.61719 10.2482 3.73291 7.93222 3.73291C5.61628 3.73291 3.73242 5.61719 3.73242 7.93271C3.73242 10.2482 5.61628 12.1325 7.93222 12.1325ZM7.93222 4.6662C9.73299 4.6662 11.1987 6.13157 11.1987 7.93271C11.1987 9.73385 9.73299 11.1992 7.93222 11.1992C6.13145 11.1992 4.66571 9.73385 4.66571 7.93271C4.66571 6.13157 6.13145 4.6662 7.93222 4.6662Z" fill="#111AE9"/>
<path d="M7.93118 9.33312C7.6737 9.33312 7.46454 9.12355 7.46454 8.86648C7.46454 8.60899 7.256 8.39983 6.99789 8.39983C6.73978 8.39983 6.53125 8.60899 6.53125 8.86648C6.53125 9.47397 6.92269 9.98728 7.46454 10.1806V10.2664C7.46454 10.5239 7.67307 10.7331 7.93118 10.7331C8.18929 10.7331 8.39783 10.5239 8.39783 10.2664V10.1806C8.93967 9.98748 9.33112 9.47418 9.33112 8.86648C9.33112 8.09462 8.70304 7.46654 7.93118 7.46654C7.6737 7.46654 7.46454 7.25697 7.46454 6.9999C7.46454 6.74283 7.6737 6.53325 7.93118 6.53325C8.18867 6.53325 8.39783 6.74283 8.39783 6.9999C8.39783 7.25739 8.60636 7.46654 8.86447 7.46654C9.12258 7.46654 9.33112 7.25739 9.33112 6.9999C9.33112 6.39241 8.93968 5.8791 8.39783 5.68578V5.59995C8.39783 5.34246 8.18929 5.1333 7.93118 5.1333C7.67307 5.1333 7.46454 5.34246 7.46454 5.59995V5.68578C6.9227 5.87889 6.53125 6.39219 6.53125 6.9999C6.53125 7.77176 7.15933 8.39983 7.93118 8.39983C8.18867 8.39983 8.39783 8.60941 8.39783 8.86648C8.39783 9.12355 8.18867 9.33312 7.93118 9.33312Z" fill="#111AE9"/>
<path d="M4.66571 4.66641V1.86655C4.66571 1.60906 4.45718 1.3999 4.19907 1.3999C3.94096 1.3999 3.73242 1.60906 3.73242 1.86655V4.66641C3.73242 4.9239 3.94096 5.13306 4.19907 5.13306C4.45718 5.13306 4.66571 4.9239 4.66571 4.66641Z" fill="#111AE9"/>
<path d="M8.39813 2.79987V0.466644C8.39813 0.209158 8.1896 0 7.93149 0C7.67338 0 7.46484 0.209158 7.46484 0.466644V2.79987C7.46484 3.05735 7.67338 3.26651 7.93149 3.26651C8.1896 3.26651 8.39813 3.05735 8.39813 2.79987Z" fill="#111AE9"/>
</svg>
