<svg width="50" height="37" viewBox="0 0 50 37" fill="none" xmlns="http://www.w3.org/2000/svg">
<path d="M43.8302 11.2415L32.6024 5.74715C29.5019 4.22994 25.7586 5.51342 24.2414 8.61388L18.7471 19.8416C17.2299 22.9421 18.5133 26.6855 21.6138 28.2027L32.8416 33.697C35.942 35.2142 39.6854 33.9307 41.2026 30.8302L46.6969 19.6025C48.2141 16.502 46.9306 12.7587 43.8302 11.2415Z" fill="url(#paint0_linear_148_423)"/>
<path d="M27 0H9C4.02944 0 0 4.02944 0 9V27C0 31.9706 4.02944 36 9 36H27C31.9706 36 36 31.9706 36 27V9C36 4.02944 31.9706 0 27 0Z" fill="url(#paint1_linear_148_423)"/>
<path opacity="0.9" d="M26.3943 13.9299L24.0543 11.3658C23.9744 11.2785 23.878 11.2077 23.7707 11.1576C23.6634 11.1076 23.5473 11.0792 23.429 11.0741C23.3107 11.069 23.1925 11.0873 23.0813 11.1279C22.9701 11.1686 22.868 11.2308 22.7808 11.3109L16.0479 17.4993C15.9624 17.5779 15.8499 17.6203 15.7338 17.6178C15.6178 17.6153 15.5072 17.568 15.4251 17.4858L13.3632 15.4158C13.2796 15.3319 13.1802 15.2653 13.0708 15.2198C12.9614 15.1744 12.8441 15.151 12.7256 15.151C12.6071 15.151 12.4898 15.1744 12.3804 15.2198C12.2709 15.2653 12.1716 15.3319 12.0879 15.4158L9.63004 17.8764C9.46187 18.0451 9.36743 18.2736 9.36743 18.5118C9.36743 18.75 9.46187 18.9785 9.63004 19.1472L15.2613 24.7938C15.3434 24.876 15.454 24.9233 15.57 24.9258C15.6861 24.9283 15.7986 24.8858 15.8841 24.8073L26.3385 15.1998C26.5141 15.0387 26.6185 14.8145 26.629 14.5764C26.6394 14.3384 26.555 14.1059 26.3943 13.9299Z" fill="white"/>
<defs>
<linearGradient id="paint0_linear_148_423" x1="46.5" y1="13" x2="23" y2="31" gradientUnits="userSpaceOnUse">
<stop stop-color="#94FFDB"/>
<stop offset="1" stop-color="#00E396"/>
</linearGradient>
<linearGradient id="paint1_linear_148_423" x1="4.1481" y1="4.1481" x2="32.9571" y2="32.9571" gradientUnits="userSpaceOnUse">
<stop stop-color="#94FFDB"/>
<stop offset="1" stop-color="#00E396"/>
</linearGradient>
</defs>
</svg>
