<svg width="14" height="14" viewBox="0 0 14 14" fill="none" xmlns="http://www.w3.org/2000/svg">
<path d="M4 7.75C3.80109 7.75 3.61032 7.67098 3.46967 7.53033C3.32902 7.38968 3.25 7.19891 3.25 7C3.25 6.80109 3.32902 6.61032 3.46967 6.46967C3.61032 6.32902 3.80109 6.25 4 6.25C4.19891 6.25 4.38968 6.32902 4.53033 6.46967C4.67098 6.61032 4.75 6.80109 4.75 7C4.75 7.19891 4.67098 7.38968 4.53033 7.53033C4.38968 7.67098 4.19891 7.75 4 7.75ZM4 10.75C3.80109 10.75 3.61032 10.671 3.46967 10.5303C3.32902 10.3897 3.25 10.1989 3.25 10C3.25 9.80109 3.32902 9.61032 3.46967 9.46967C3.61032 9.32902 3.80109 9.25 4 9.25C4.19891 9.25 4.38968 9.32902 4.53033 9.46967C4.67098 9.61032 4.75 9.80109 4.75 10C4.75 10.1989 4.67098 10.3897 4.53033 10.5303C4.38968 10.671 4.19891 10.75 4 10.75ZM6.25 10C6.25 10.1989 6.32902 10.3897 6.46967 10.5303C6.61032 10.671 6.80109 10.75 7 10.75C7.19891 10.75 7.38968 10.671 7.53033 10.5303C7.67098 10.3897 7.75 10.1989 7.75 10C7.75 9.80109 7.67098 9.61032 7.53033 9.46967C7.38968 9.32902 7.19891 9.25 7 9.25C6.80109 9.25 6.61032 9.32902 6.46967 9.46967C6.32902 9.61032 6.25 9.80109 6.25 10ZM10 10.75C9.80109 10.75 9.61032 10.671 9.46967 10.5303C9.32902 10.3897 9.25 10.1989 9.25 10C9.25 9.80109 9.32902 9.61032 9.46967 9.46967C9.61032 9.32902 9.80109 9.25 10 9.25C10.1989 9.25 10.3897 9.32902 10.5303 9.46967C10.671 9.61032 10.75 9.80109 10.75 10C10.75 10.1989 10.671 10.3897 10.5303 10.5303C10.3897 10.671 10.1989 10.75 10 10.75ZM6.25 7C6.25 7.19891 6.32902 7.38968 6.46967 7.53033C6.61032 7.67098 6.80109 7.75 7 7.75C7.19891 7.75 7.38968 7.67098 7.53033 7.53033C7.67098 7.38968 7.75 7.19891 7.75 7C7.75 6.80109 7.67098 6.61032 7.53033 6.46967C7.38968 6.32902 7.19891 6.25 7 6.25C6.80109 6.25 6.61032 6.32902 6.46967 6.46967C6.32902 6.61032 6.25 6.80109 6.25 7ZM10 7.75C9.80109 7.75 9.61032 7.67098 9.46967 7.53033C9.32902 7.38968 9.25 7.19891 9.25 7C9.25 6.80109 9.32902 6.61032 9.46967 6.46967C9.61032 6.32902 9.80109 6.25 10 6.25C10.1989 6.25 10.3897 6.32902 10.5303 6.46967C10.671 6.61032 10.75 6.80109 10.75 7C10.75 7.19891 10.671 7.38968 10.5303 7.53033C10.3897 7.67098 10.1989 7.75 10 7.75ZM4 3.25C3.80109 3.25 3.61032 3.32902 3.46967 3.46967C3.32902 3.61032 3.25 3.80109 3.25 4C3.25 4.19891 3.32902 4.38968 3.46967 4.53033C3.61032 4.67098 3.80109 4.75 4 4.75H10C10.1989 4.75 10.3897 4.67098 10.5303 4.53033C10.671 4.38968 10.75 4.19891 10.75 4C10.75 3.80109 10.671 3.61032 10.5303 3.46967C10.3897 3.32902 10.1989 3.25 10 3.25H4Z" fill="#6C6868"/>
<path fill-rule="evenodd" clip-rule="evenodd" d="M2.5 0.25C1.90326 0.25 1.33097 0.487053 0.90901 0.90901C0.487053 1.33097 0.25 1.90326 0.25 2.5V11.5C0.25 12.0967 0.487053 12.669 0.90901 13.091C1.33097 13.5129 1.90326 13.75 2.5 13.75H11.5C12.0967 13.75 12.669 13.5129 13.091 13.091C13.5129 12.669 13.75 12.0967 13.75 11.5V2.5C13.75 1.90326 13.5129 1.33097 13.091 0.90901C12.669 0.487053 12.0967 0.25 11.5 0.25H2.5ZM11.5 1.75H2.5C2.30109 1.75 2.11032 1.82902 1.96967 1.96967C1.82902 2.11032 1.75 2.30109 1.75 2.5V11.5C1.75 11.6989 1.82902 11.8897 1.96967 12.0303C2.11032 12.171 2.30109 12.25 2.5 12.25H11.5C11.6989 12.25 11.8897 12.171 12.0303 12.0303C12.171 11.8897 12.25 11.6989 12.25 11.5V2.5C12.25 2.30109 12.171 2.11032 12.0303 1.96967C11.8897 1.82902 11.6989 1.75 11.5 1.75Z" fill="#6C6868"/>
</svg>
