<svg width="29" height="29" viewBox="0 0 29 29" fill="none" xmlns="http://www.w3.org/2000/svg">
<path d="M21.5226 25.1371C21.0825 25.1371 20.7256 24.7802 20.7256 24.3398V18.7085C20.7256 18.2681 21.0825 17.9111 21.5226 17.9111C21.963 17.9111 22.3197 18.2681 22.3197 18.7085V24.3398C22.3197 24.5514 22.2357 24.754 22.0864 24.9036C21.9368 25.0532 21.7342 25.1371 21.5226 25.1371L21.5226 25.1371Z" fill="#111AE9"/>
<path d="M15.6752 22.3192H3.288C2.41616 22.3181 1.58048 21.9714 0.964146 21.355C0.347796 20.7387 0.00113873 19.9027 0 19.0312V3.28828C0.00111211 2.41645 0.347789 1.58077 0.964146 0.96443C1.5805 0.34808 2.41616 0.00113873 3.288 0H19.0309C19.9027 0.00111204 20.7384 0.348066 21.3547 0.96443C21.9711 1.58079 22.318 2.41645 22.3189 3.28828V16.6078H16.8549C16.5377 16.6078 16.2336 16.7338 16.0095 16.9578C15.7851 17.1822 15.6592 17.4863 15.6592 17.8033L15.6752 22.3192ZM3.288 1.59436C2.83901 1.59547 2.4089 1.77423 2.09148 2.09172C1.774 2.40892 1.59523 2.83929 1.59412 3.28823V19.0311C1.59524 19.4801 1.77399 19.9102 2.09148 20.2276C2.40897 20.5451 2.83906 20.7239 3.288 20.725H14.081V17.8034C14.081 17.0636 14.3748 16.3539 14.898 15.8306C15.4212 15.3074 16.131 15.0136 16.8708 15.0136H20.7407V3.28826C20.7399 2.83927 20.5608 2.40895 20.2436 2.09174C19.9261 1.77426 19.4957 1.59549 19.0471 1.59438L3.288 1.59436Z" fill="#111AE9"/>
<path d="M8.27825 16.0496C7.86374 16.0474 7.46705 15.8817 7.17426 15.5881C6.88179 15.2948 6.71693 14.8975 6.71582 14.4833V7.83919C6.71527 7.47166 6.84454 7.11582 7.08057 6.83391C7.3166 6.55229 7.64438 6.36269 8.00607 6.29875C8.36804 6.2348 8.74112 6.30041 9.05946 6.48418L14.8187 9.80805H14.8184C15.1365 9.99181 15.3797 10.2818 15.5054 10.6268C15.6311 10.9721 15.6311 11.3505 15.5054 11.6958C15.3797 12.0408 15.1365 12.3307 14.8184 12.5145L9.06338 15.8384C8.82485 15.9768 8.55407 16.0497 8.2783 16.0497L8.27825 16.0496ZM8.31023 7.88705L8.30995 14.4311L13.9733 11.1589L8.31023 7.88705Z" fill="#111AE9"/>
<path d="M25.5558 28.4325H16.8552C16.1152 28.4325 15.4057 28.1384 14.8825 27.6152C14.3592 27.092 14.0654 26.3825 14.0654 25.6424V17.803C14.0654 17.0632 14.3593 16.3535 14.8825 15.8302C15.4057 15.307 16.1151 15.0132 16.8552 15.0132H25.5558C26.2958 15.0132 27.0053 15.307 27.5286 15.8302C28.0518 16.3534 28.3456 17.0632 28.3456 17.803V25.6588C28.3415 26.3957 28.0457 27.1014 27.523 27.6212C27.0003 28.1408 26.2931 28.4327 25.5557 28.4327L25.5558 28.4325ZM16.8552 16.6075C16.538 16.6075 16.2339 16.7335 16.0098 16.9576C15.7855 17.1819 15.6595 17.4861 15.6595 17.803V25.6588C15.6595 25.9757 15.7854 26.2799 16.0098 26.5042C16.2339 26.7283 16.538 26.8542 16.8552 26.8542H25.5558C25.873 26.8542 26.1772 26.7283 26.4012 26.5042C26.6256 26.2799 26.7515 25.9757 26.7515 25.6588V17.803C26.7515 17.4861 26.6256 17.1819 26.4012 16.9576C26.1772 16.7335 25.873 16.6075 25.5558 16.6075H16.8552Z" fill="#111AE9"/>
<path d="M21.4704 25.1366C21.3019 25.1338 21.1387 25.0782 21.0041 24.977L18.266 22.9843C17.9093 22.7257 17.8298 22.2269 18.0886 21.8703C18.3472 21.5139 18.846 21.4344 19.2026 21.6929L21.4823 23.351L23.8737 21.6852H23.8734C24.2287 21.507 24.661 21.6179 24.8868 21.9448C25.1125 22.272 25.0627 22.7152 24.7703 22.9843L21.9326 24.977C21.7989 25.0774 21.6374 25.133 21.4703 25.1366L21.4704 25.1366Z" fill="#111AE9"/>
</svg>
