<svg width="24" height="24" viewBox="0 0 24 24" fill="none" xmlns="http://www.w3.org/2000/svg">
<path d="M12.3495 0.850315C12.3333 0.849809 12.3172 0.849913 12.301 0.850626L12.3004 0.85063C7.90386 0.878821 4.23536 4.11167 4.23536 8.16563C4.23536 11.8859 4.11321 16.0146 1.10808 18.8481L1.10803 18.848L1.10491 18.8511C0.862063 19.094 0.795102 19.3937 0.893464 19.6445C0.991301 19.8941 1.23981 20.0603 1.55031 20.0603H8.39625C8.52994 21.0434 8.98594 21.8436 9.62648 22.3984L9.72468 22.285L9.62648 22.3984C10.3906 23.0602 11.3794 23.3802 12.358 23.3802C13.3364 23.3802 14.3254 23.0602 15.0895 22.3984L14.9913 22.285L15.0895 22.3984C15.7295 21.8441 16.1934 21.0442 16.3278 20.0603H23.214C23.3889 20.0603 23.5339 20.008 23.6413 19.9113C23.7474 19.8159 23.8041 19.6887 23.8254 19.5602C23.8669 19.3103 23.7803 19.0205 23.6028 18.843L23.6028 18.843L23.5998 18.8402C20.6068 16.0071 20.4965 11.8816 20.4965 8.16581C20.4965 4.23775 17.0386 1.08083 12.825 0.862365L12.8505 0.847102L12.3495 0.850315ZM10.5019 21.3957C10.1338 21.0769 9.85999 20.6439 9.74789 20.0598H14.9769C14.8646 20.6441 14.5908 21.077 14.2229 21.3957L14.2229 21.3957C13.7354 21.818 13.0507 22.0457 12.3584 22.0457C11.6662 22.0457 10.9895 21.8182 10.5019 21.3957L10.5019 21.3957ZM5.5694 8.16507C5.5694 4.93306 8.55309 2.20052 12.3248 2.18446L12.3592 2.18446C16.1467 2.18504 19.1629 4.92474 19.1629 8.16507C19.1629 11.4887 19.2223 15.5658 21.704 18.7259H3.02029C5.50259 15.5658 5.5694 11.4892 5.5694 8.16507Z" fill="#E91135" stroke="#E91135" stroke-width="0.3"/>
<path d="M12.606 3.73703C12.5838 3.44397 12.3594 3.21187 12.076 3.17263L12.0751 3.16606L11.9873 3.1666C11.9526 3.16682 11.918 3.17001 11.8841 3.17592C10.2609 3.43924 9.04452 4.38956 8.27061 5.58187C7.49776 6.77256 7.13771 8.20233 7.13771 9.54076C7.13771 10.7899 7.1203 11.7785 6.94757 12.8054C6.77544 13.8288 6.44833 14.8939 5.82571 16.292L5.82184 16.3003C5.7521 16.4501 5.74545 16.6218 5.80331 16.7767L5.80336 16.7768C5.86142 16.9316 5.97888 17.0567 6.12996 17.124C6.28103 17.1914 6.4527 17.1952 6.60666 17.135L6.60681 17.135C6.76034 17.0746 6.8835 16.9553 6.9484 16.8035C8.264 13.8529 8.37155 12.0704 8.37155 9.54081C8.37155 8.42515 8.68457 7.21057 9.30562 6.2537C9.92553 5.29858 10.8232 4.59816 12.0813 4.39409C12.4015 4.34662 12.6305 4.05976 12.606 3.73703Z" fill="#E91135" stroke="#E91135" stroke-width="0.2"/>
</svg>
