<svg width="34" height="31" viewBox="0 0 34 31" fill="none" xmlns="http://www.w3.org/2000/svg">
<path d="M32.064 17.1302H1.66006C0.742545 17.1302 0 16.3876 0 15.4701C0 14.5526 0.742584 13.8101 1.66006 13.8101H32.1077C33.0252 13.8101 33.7677 14.5526 33.7677 15.4701C33.7677 16.3876 33.0251 17.1302 32.064 17.1302H32.064Z" fill="#111AE9"/>
<path d="M32.064 4.0252H1.66006C0.742545 4.0252 0 3.28262 0 2.36514C0 1.44766 0.742584 0.705078 1.66006 0.705078H32.1077C33.0252 0.705078 33.7677 1.44766 33.7677 2.36514C33.7677 3.28262 33.0251 4.0252 32.064 4.0252H32.064Z" fill="#111AE9"/>
<path d="M32.064 30.2357H1.66006C0.742545 30.2357 0 29.4931 0 28.5756C0 27.6581 0.742584 26.9155 1.66006 26.9155H32.1077C33.0252 26.9155 33.7677 27.6581 33.7677 28.5756C33.7677 29.4931 33.0251 30.2357 32.064 30.2357H32.064Z" fill="#111AE9"/>
</svg>
