<svg width="19" height="24" viewBox="0 0 19 24" fill="none" xmlns="http://www.w3.org/2000/svg">
<path d="M0.617971 19.2702C0.17058 18.7588 -0.0532475 18.0878 0.010725 17.4166C0.0747013 16.6496 0.809656 15.6911 1.67256 14.5724C1.73654 14.4766 1.83239 14.3486 1.89637 14.2849V9.01183C1.89637 5.27283 4.70866 2.10906 8.28782 1.72558V0.798931C8.28782 0.351541 8.63936 0 9.08675 0C9.53414 0 9.88568 0.351541 9.88568 0.798931V1.72558C11.4516 1.88541 12.9216 2.58848 14.072 3.70687C15.4782 5.08091 16.2771 6.90259 16.2771 8.88388V14.3166C16.3411 14.4124 16.437 14.5083 16.5009 14.6041C17.3638 15.7227 18.0988 16.6812 18.1628 17.4483C18.2267 18.1195 18.0029 18.7905 17.5555 19.3018C17.1081 19.8132 16.469 20.1008 15.766 20.1008H2.34393C1.73646 20.0691 1.09737 19.7815 0.617901 19.2702H0.617971ZM16.4368 18.1837C16.5966 18.0238 16.6606 17.8003 16.6285 17.5764C16.5645 17.193 15.6058 15.9786 15.2863 15.5631C14.8389 14.9879 14.7112 14.8281 14.7112 14.5085V8.88406C14.7112 7.35017 14.1039 5.91215 13.0175 4.85751C11.9629 3.83476 10.5888 3.29154 9.15052 3.29154H8.95881C5.9869 3.3874 3.55798 5.97589 3.55798 9.04385V14.5405C3.55798 14.8602 3.43025 15.0198 2.98286 15.5951C2.6632 15.9785 1.70469 17.1929 1.64066 17.5764C1.60878 17.8002 1.70464 18.0238 1.83237 18.1836C1.9922 18.3434 2.18391 18.4393 2.43961 18.4393H15.8297C16.0533 18.4712 16.2771 18.3753 16.4367 18.1836L16.4368 18.1837Z" fill="#282828"/>
<path d="M7.61659 21.3153C7.8404 21.9544 8.44743 22.3699 9.11859 22.3699C9.78974 22.3699 10.3968 21.9544 10.6206 21.3153C10.7804 20.8998 11.2278 20.6762 11.6433 20.836C12.0588 20.9959 12.2824 21.4433 12.1226 21.8588C11.6752 23.137 10.4608 23.9999 9.11855 23.9999C7.77635 23.9999 6.56191 23.137 6.11451 21.8588C5.95468 21.4433 6.17849 20.9959 6.59378 20.836C7.00929 20.6762 7.45668 20.8998 7.61653 21.3153H7.61659Z" fill="#282828"/>
</svg>
