<svg width="25" height="32" viewBox="0 0 25 32" fill="none" xmlns="http://www.w3.org/2000/svg">
<path d="M0.823364 25.6763C0.227245 24.995 -0.0709915 24.1009 0.014246 23.2066C0.0994911 22.1846 1.07877 20.9074 2.22854 19.4169C2.31379 19.2892 2.44151 19.1187 2.52675 19.0338V12.0077C2.52675 7.02573 6.27397 2.8102 11.043 2.29923V1.06453C11.043 0.468407 11.5114 0 12.1075 0C12.7036 0 13.172 0.468407 13.172 1.06453V2.29923C15.2586 2.51219 17.2172 3.44899 18.7501 4.93918C20.6237 6.77002 21.6882 9.19729 21.6882 11.8372V19.076C21.7735 19.2037 21.9012 19.3314 21.9865 19.4591C23.1362 20.9496 24.1155 22.2267 24.2008 23.2488C24.286 24.1432 23.9878 25.0372 23.3916 25.7185C22.7955 26.3999 21.944 26.7831 21.0072 26.7831H3.12311C2.31369 26.7409 1.46214 26.3577 0.823273 25.6763H0.823364ZM21.901 24.2287C22.114 24.0157 22.1992 23.7178 22.1565 23.4195C22.0712 22.9087 20.7937 21.2905 20.368 20.7369C19.7719 19.9705 19.6017 19.7576 19.6017 19.3317V11.8375C19.6017 9.79366 18.7926 7.87759 17.3449 6.47234C15.9398 5.10959 14.1089 4.38578 12.1925 4.38578H11.937C7.97714 4.5135 4.74075 7.96252 4.74075 12.0504V19.3743C4.74075 19.8003 4.57055 20.0129 3.97444 20.7795C3.54851 21.2904 2.27135 22.9086 2.18604 23.4195C2.14356 23.7177 2.27128 24.0156 2.44148 24.2286C2.65444 24.4415 2.90988 24.5693 3.25059 24.5693H21.0921C21.39 24.6117 21.6882 24.484 21.9009 24.2286L21.901 24.2287Z" fill="#4E4E4E"/>
<path d="M10.1486 28.4015C10.4468 29.2531 11.2557 29.8067 12.1499 29.8067C13.0442 29.8067 13.853 29.2531 14.1513 28.4015C14.3642 27.8479 14.9604 27.55 15.514 27.7629C16.0676 27.9759 16.3655 28.5721 16.1526 29.1257C15.5565 30.8288 13.9383 31.9786 12.1499 31.9786C10.3615 31.9786 8.74333 30.8289 8.14719 29.1257C7.93423 28.572 8.23244 27.9759 8.78579 27.7629C9.33943 27.55 9.93555 27.8479 10.1485 28.4015H10.1486Z" fill="#4E4E4E"/>
</svg>
