<svg width="54" height="54" viewBox="0 0 54 54" fill="none" xmlns="http://www.w3.org/2000/svg">
<path d="M27 0C21.6599 0 16.4397 1.58352 11.9996 4.55032C7.55949 7.51712 4.09883 11.7339 2.05526 16.6675C0.0116987 21.6011 -0.522991 27.0299 0.51881 32.2674C1.56061 37.5049 4.13211 42.3159 7.90813 46.0919C11.6841 49.8679 16.4951 52.4394 21.7326 53.4812C26.9701 54.523 32.3989 53.9883 37.3325 51.9447C42.2661 49.9012 46.4829 46.4405 49.4497 42.0004C52.4165 37.5603 54 32.3401 54 27C54 23.4543 53.3016 19.9433 51.9448 16.6675C50.5879 13.3918 48.5991 10.4153 46.0919 7.90811C43.5847 5.40093 40.6082 3.41213 37.3325 2.05525C34.0567 0.698376 30.5457 0 27 0ZM34.317 30.483C34.5701 30.734 34.7709 31.0326 34.908 31.3616C35.0451 31.6907 35.1157 32.0436 35.1157 32.4C35.1157 32.7564 35.0451 33.1093 34.908 33.4384C34.7709 33.7674 34.5701 34.066 34.317 34.317C34.066 34.5701 33.7674 34.7709 33.4384 34.908C33.1093 35.0451 32.7564 35.1156 32.4 35.1156C32.0436 35.1156 31.6907 35.0451 31.3617 34.908C31.0326 34.7709 30.734 34.5701 30.483 34.317L27 30.807L23.517 34.317C23.266 34.5701 22.9674 34.7709 22.6384 34.908C22.3093 35.0451 21.9564 35.1156 21.6 35.1156C21.2436 35.1156 20.8907 35.0451 20.5617 34.908C20.2326 34.7709 19.934 34.5701 19.683 34.317C19.4299 34.066 19.2291 33.7674 19.092 33.4384C18.9549 33.1093 18.8844 32.7564 18.8844 32.4C18.8844 32.0436 18.9549 31.6907 19.092 31.3616C19.2291 31.0326 19.4299 30.734 19.683 30.483L23.193 27L19.683 23.517C19.1746 23.0086 18.889 22.319 18.889 21.6C18.889 20.881 19.1746 20.1914 19.683 19.683C20.1914 19.1746 20.881 18.8889 21.6 18.8889C22.319 18.8889 23.0086 19.1746 23.517 19.683L27 23.193L30.483 19.683C30.9914 19.1746 31.681 18.8889 32.4 18.8889C33.119 18.8889 33.8086 19.1746 34.317 19.683C34.8254 20.1914 35.1111 20.881 35.1111 21.6C35.1111 22.319 34.8254 23.0086 34.317 23.517L30.807 27L34.317 30.483Z" fill="#E91135"/>
</svg>
