<?xml version="1.0" encoding="utf-8"?><svg version="1.1" id="Layer_1" xmlns="http://www.w3.org/2000/svg" xmlns:xlink="http://www.w3.org/1999/xlink" x="0px" y="0px" viewBox="0 0 67.92 122.88" style="enable-background:new 0 0 67.92 122.88" xml:space="preserve"><g><path d="M1.62,73.77c-0.56-2.09-0.96-3.65-1.23-5.76C0.12,65.93,0,63.41,0,59.44V41.76v-8.28c0-2.2,0.84-4.19,2.2-5.64 c1.14-1.22,2.64-2.05,4.3-2.28V4.64c0-1.28,0.52-2.44,1.36-3.28C8.7,0.52,9.86,0,11.14,0h45.51c1.29,0,2.46,0.53,3.31,1.38 c0.85,0.85,1.38,2.02,1.38,3.31v20.88c1.62,0.26,3.08,1.08,4.19,2.27c1.36,1.45,2.21,3.46,2.21,5.66v26.02v0 c0.31,3.75,0.21,6.77-0.12,9.36c-0.33,2.65-0.89,4.82-1.49,6.87c-2.95,10.04-2.77,18.89-2.58,28.78c0.05,2.71,0.11,5.5,0.11,7.99 c0,0.02,0,0.05,0,0.07c0.09,3.28-0.61,5.86-2.22,7.66c-1.63,1.82-4.09,2.73-7.47,2.62v0H13.27c-0.03,0-0.05,0-0.08,0 c-3.21,0.09-5.43-0.84-6.88-2.57c-1.45-1.72-2.03-4.13-2.02-7.02H4.29v-18.8c0-4.31-0.12-7.47-0.52-10.53 C3.38,80.89,2.71,77.85,1.62,73.77L1.62,73.77z M13.34,67.92h9.89v10.91h-9.89V67.92L13.34,67.92z M29.02,102.33h9.89v10.91h-9.89 V102.33L29.02,102.33z M13.34,102.33h9.89v10.91h-9.89V102.33L13.34,102.33z M44.7,85.12h9.89v28.07H44.7V85.12L44.7,85.12z M29.02,85.12h9.89v10.91h-9.89V85.12L29.02,85.12z M13.34,85.12h9.89v10.91h-9.89V85.12L13.34,85.12z M44.7,67.92h9.89v10.91H44.7 V67.92L44.7,67.92z M29.02,67.92h9.89v10.91h-9.89V67.92L29.02,67.92z M11.7,36.29h44.52c0.75,0,1.44,0.33,1.92,0.85 c0.05,0.05,0.1,0.11,0.14,0.17c0.37,0.47,0.6,1.07,0.6,1.71v19.63c0,0.72-0.29,1.38-0.74,1.88l0,0c-0.49,0.52-1.17,0.85-1.92,0.85 H11.7c-0.75,0-1.43-0.33-1.92-0.85c-0.46-0.49-0.75-1.16-0.75-1.88V39.01c0-0.72,0.29-1.39,0.75-1.88 C10.28,36.61,10.95,36.29,11.7,36.29L11.7,36.29z M55.36,39.82H12.57v18.02h42.79V39.82L55.36,39.82z M46.57,15.69 c-0.85,0-1.54-0.69-1.54-1.54c0-0.85,0.69-1.54,1.54-1.54h6.09c0.85,0,1.54,0.69,1.54,1.54c0,0.85-0.69,1.54-1.54,1.54H46.57 L46.57,15.69z M41.77,9.35c-0.85,0-1.54-0.69-1.54-1.54c0-0.85,0.69-1.54,1.54-1.54h10.89c0.85,0,1.54,0.69,1.54,1.54 c0,0.85-0.69,1.54-1.54,1.54H41.77L41.77,9.35z M13.82,10.98c0-1.84,1.49-3.33,3.33-3.33c0.84,0,1.61,0.31,2.19,0.83 c0.59-0.51,1.35-0.83,2.19-0.83c1.84,0,3.33,1.49,3.33,3.33c0,1.84-1.49,3.33-3.33,3.33c-0.84,0-1.61-0.31-2.19-0.82 C18.76,14,18,14.31,17.16,14.31C15.32,14.31,13.82,12.82,13.82,10.98L13.82,10.98z M9.23,19.15h49.38V4.69 c0-0.54-0.22-1.02-0.58-1.38c-0.35-0.35-0.84-0.58-1.38-0.58H11.14c-0.52,0-1,0.22-1.35,0.56C9.45,3.64,9.23,4.12,9.23,4.64V19.15 L9.23,19.15z M58.61,21.49H9.23v3.64h49.38V21.49L58.61,21.49z M3.29,67.6c0.24,1.86,0.62,3.34,1.15,5.32 c1.13,4.19,1.82,7.35,2.24,10.61c0.42,3.26,0.55,6.53,0.55,10.95v18.8H7.22v0.01c-0.01,2.14,0.36,3.85,1.27,4.94 c0.87,1.04,2.36,1.6,4.62,1.54c0.05-0.01,0.11-0.01,0.16-0.01h40.69v0.01l0.05,0c2.52,0.08,4.26-0.49,5.31-1.66 c1.04-1.15,1.49-2.98,1.42-5.41c-0.01-0.06-0.01-0.12-0.01-0.18c0-3-0.05-5.5-0.1-7.93c-0.2-10.16-0.38-19.26,2.7-29.77 c0.57-1.93,1.09-3.95,1.39-6.34c0.3-2.39,0.39-5.18,0.1-8.68c-0.02-0.09-0.02-0.18-0.02-0.28V33.5c0-1.35-0.52-2.58-1.35-3.47 c-0.83-0.88-1.97-1.43-3.23-1.43h-2.41H29.37H7.49c-1.25,0-2.39,0.55-3.22,1.43c-0.83,0.88-1.34,2.1-1.34,3.45v8.28v17.68 C2.93,63.31,3.04,65.7,3.29,67.6L3.29,67.6z"/></g></svg>