<svg width="20" height="21" viewBox="0 0 20 21" fill="none" xmlns="http://www.w3.org/2000/svg">
<g clip-path="url(#clip0_232_3083)">
<path d="M18.3943 3.54987C19.0331 3.71812 19.441 4.33769 19.3432 4.99099C19.1461 6.30922 18.5516 8.8458 16.7877 11.0252C15.8885 12.1362 14.5273 13.2268 13.0531 14.0172C13.0349 14.0269 13.0167 14.0363 12.9986 14.0459L12.3242 16.3898C12.2132 16.7756 11.9358 17.0825 11.5632 17.2318L8.77092 18.3506C8.48834 18.4639 8.1717 18.4259 7.92389 18.2492C7.67606 18.0724 7.53708 17.7854 7.5521 17.4814L7.65447 15.4107C7.614 15.4098 7.57356 15.4089 7.53322 15.4074C7.11986 15.3919 6.73627 15.1749 6.50711 14.8269L4.28752 11.4563C4.0975 11.1678 4.03216 10.8173 4.10037 10.4859C4.11442 10.4177 4.13417 10.3503 4.15964 10.2843C4.17418 10.2467 4.18932 10.2091 4.20444 10.1716L2.26177 9.44764C1.97655 9.34133 1.76775 9.10027 1.70327 8.80283C1.67644 8.67906 1.67638 8.55392 1.70098 8.43442C1.73557 8.26661 1.81873 8.11003 1.94466 7.98458L4.07563 5.86143C4.36002 5.57811 4.75151 5.44455 5.14975 5.49503L7.56933 5.80143C7.58536 5.78854 7.60116 5.7755 7.61728 5.76266C8.92581 4.72057 10.4654 3.90085 11.8413 3.51373C14.5403 2.7543 17.1054 3.21037 18.3943 3.54987ZM4.76237 6.55066L2.72396 8.58157L4.6172 9.28714C5.11392 8.35368 5.78419 7.46712 6.60381 6.65978L5.02758 6.46017C4.92926 6.44771 4.83256 6.48071 4.76237 6.55066ZM5.10009 10.9212L7.31968 14.2918C7.37634 14.3778 7.46977 14.4314 7.56963 14.4351C8.08364 14.4543 8.58323 14.4226 9.06174 14.3545L5.73139 9.29715C5.4295 9.79286 5.21645 10.2487 5.06717 10.635C5.03119 10.7284 5.04346 10.8352 5.10009 10.9212ZM11.3892 16.1207L11.8285 14.5939C10.763 15.0279 9.68379 15.2935 8.63003 15.381L8.53026 17.399L11.2013 16.3286C11.2933 16.2918 11.3618 16.216 11.3892 16.1207ZM8.22344 6.52368C7.42289 7.16123 6.80464 7.81282 6.32679 8.43236L10.0908 14.1483C11.0805 13.8932 11.9398 13.5101 12.5933 13.1597C13.9576 12.4283 15.2108 11.4271 16.0315 10.4131C17.6503 8.4129 18.1983 6.06716 18.3811 4.84695C18.4053 4.68544 18.3044 4.53226 18.1464 4.49067C16.9533 4.17643 14.5819 3.75329 12.1048 4.45029C10.8491 4.8036 9.43438 5.55933 8.22344 6.52368Z" fill="#111AE9"/>
<path d="M11.0543 7.35833C11.18 6.7484 11.5378 6.186 12.0978 5.81725C12.6404 5.45991 13.2897 5.33532 13.926 5.46634C14.5623 5.59735 15.1096 5.96833 15.4669 6.51092C16.2045 7.63105 15.8933 9.14241 14.7732 9.87997C14.2306 10.2373 13.5813 10.3619 12.945 10.2309C12.3087 10.0999 11.7614 9.72889 11.4041 9.18629C11.0353 8.62619 10.9287 7.96849 11.0543 7.35833ZM14.2381 9.06747C14.5742 8.84621 14.7889 8.50887 14.8642 8.14284C14.9396 7.77678 14.8756 7.38207 14.6543 7.04605C14.4399 6.7205 14.1116 6.49793 13.7298 6.41932C13.348 6.34071 12.9585 6.41546 12.6329 6.62985C11.9608 7.07238 11.7742 7.97924 12.2167 8.6513C12.4311 8.97686 12.7594 9.19945 13.1412 9.27806C13.523 9.35667 13.9126 9.28186 14.2381 9.06747Z" fill="#111AE9"/>
<path d="M2.96061 16.7985C2.98572 16.6766 3.05733 16.5642 3.16955 16.4904L5.04547 15.2551C5.26986 15.1073 5.57154 15.1694 5.7193 15.3938C5.86707 15.6182 5.80495 15.9199 5.58056 16.0676L3.70465 17.3029C3.48026 17.4507 3.17858 17.3886 3.03082 17.1642C2.95693 17.052 2.9355 16.9205 2.96061 16.7985Z" fill="#111AE9"/>
<path d="M4.58707 13.6744C4.73484 13.8988 4.67272 14.2005 4.44833 14.3482L0.841711 16.7232C0.617319 16.871 0.315649 16.8089 0.167883 16.5845C0.0940003 16.4723 0.0725982 16.3408 0.0977065 16.2189C0.122815 16.0969 0.194427 15.9845 0.306648 15.9107L3.91324 13.5357C4.13764 13.3879 4.43931 13.45 4.58707 13.6744Z" fill="#111AE9"/>
<path d="M3.3169 12.6291L1.44098 13.8644C1.21658 14.0122 0.914912 13.9501 0.767147 13.7257C0.693264 13.6135 0.671836 13.482 0.696938 13.3601C0.72204 13.2381 0.793659 13.1257 0.90588 13.0519L2.7818 11.8166C3.00619 11.6688 3.30786 11.7309 3.45563 11.9553C3.6034 12.1797 3.54128 12.4814 3.3169 12.6291Z" fill="#111AE9"/>
</g>
<defs>
<clipPath id="clip0_232_3083">
<rect width="16.6048" height="16.6048" fill="white" transform="matrix(0.201667 -0.979454 -0.979454 -0.201667 16.2637 20.0444)"/>
</clipPath>
</defs>
</svg>
