<svg width="731" height="692" viewBox="0 0 731 692" fill="none" xmlns="http://www.w3.org/2000/svg">
<path d="M180.477 404.253L179.713 403.443L184.57 398.811L185.38 399.62L180.477 404.253ZM190.192 394.898L189.427 394.089C191.001 392.56 192.575 390.941 194.149 389.322L194.959 390.086C193.385 391.705 191.811 393.324 190.192 394.898ZM199.591 385.139L198.737 384.375C200.221 382.756 201.75 381.047 203.189 379.338L204.043 380.102C202.604 381.811 201.075 383.52 199.591 385.139ZM208.406 374.93L207.551 374.211C208.945 372.502 210.385 370.748 211.734 368.949L212.633 369.623C211.239 371.422 209.845 373.221 208.406 374.93ZM216.726 364.272L215.826 363.597C217.176 361.843 218.48 359.999 219.784 358.155L220.728 358.785C219.379 360.629 218.075 362.473 216.726 364.272ZM224.551 353.253L223.652 352.623C224.911 350.765 226.14 348.891 227.34 347.002L228.284 347.631C227.055 349.52 225.81 351.394 224.551 353.253ZM286.164 345.473C284.096 345.473 281.982 345.068 280.093 344.303L280.498 343.269C282.297 343.944 284.231 344.348 286.164 344.348C286.434 344.303 286.659 344.303 286.884 344.303L286.929 345.428C286.659 345.428 286.389 345.428 286.164 345.473ZM293.63 343.539L293.045 342.55C294.934 341.47 296.463 339.941 297.543 338.052L298.532 338.592C297.363 340.661 295.654 342.37 293.63 343.539ZM231.927 341.92L230.937 341.335C232.137 339.416 233.306 337.498 234.445 335.579L235.435 336.118C234.265 338.067 233.096 340.001 231.927 341.92ZM274.426 340.346C272.897 338.727 271.638 336.748 270.694 334.499L271.728 334.095C272.628 336.208 273.797 338.052 275.236 339.581L274.426 340.346ZM300.376 331.891L299.252 331.846L299.297 331.576C299.297 329.867 298.937 328.248 298.262 326.809C298.112 326.419 297.932 326.044 297.723 325.685L298.712 325.145C298.922 325.535 299.117 325.924 299.297 326.314C300.016 327.888 300.421 329.732 300.421 331.576L300.376 331.891ZM239.257 330.722L238.358 329.957C239.842 328.248 241.461 326.584 243.17 325.1L243.89 325.954C242.226 327.394 240.652 329.013 239.257 330.722ZM268.94 327.843C268.805 326.764 268.76 325.685 268.76 324.605C268.76 323.391 268.805 322.177 268.985 320.962L270.109 321.097C269.929 322.267 269.884 323.436 269.884 324.605C269.884 325.64 269.929 326.674 270.064 327.708L268.94 327.843ZM249.241 322.042L248.657 321.052C250.591 319.883 252.614 318.849 254.728 317.904L255.178 318.939C253.109 319.838 251.13 320.872 249.241 322.042ZM293.36 320.872C291.696 319.613 289.762 318.534 287.604 317.679L288.008 316.645C290.302 317.544 292.326 318.669 294.035 319.973L293.36 320.872ZM261.474 316.78L261.159 315.701C263.363 315.071 265.612 314.621 267.86 314.351L267.995 315.476C265.792 315.745 263.588 316.195 261.474 316.78ZM281.262 315.835C279.104 315.431 276.9 315.206 274.651 315.161V314.036C276.99 314.081 279.284 314.306 281.442 314.711L281.262 315.835ZM271.683 314.711L270.604 314.351C271.368 312.193 272.358 310.124 273.572 308.145L274.516 308.73C273.392 310.664 272.403 312.642 271.683 314.711ZM278.519 303.468L277.709 302.703C278.039 302.343 278.384 301.999 278.744 301.669C279.958 300.41 281.352 299.24 282.836 298.161L283.511 299.06C282.072 300.14 280.723 301.264 279.508 302.478C279.179 302.808 278.849 303.138 278.519 303.468ZM289.178 295.642L288.683 294.608C290.707 293.619 292.865 292.764 295.024 292.09L295.339 293.169C293.225 293.844 291.156 294.653 289.178 295.642ZM301.86 291.505L301.59 290.426C303.794 289.841 305.953 289.256 308.066 288.672L308.381 289.751C306.267 290.336 304.064 290.92 301.86 291.505ZM314.857 287.817L314.543 286.738C316.701 286.063 318.86 285.344 320.929 284.624L321.289 285.658C319.22 286.423 317.061 287.143 314.857 287.817ZM327.63 283.32L327.225 282.285C329.339 281.476 331.452 280.621 333.476 279.767L333.881 280.756C331.857 281.656 329.743 282.51 327.63 283.32ZM340.042 277.968L339.593 276.979L345.664 274.01L346.114 275.045L340.042 277.968ZM352.185 272.032L351.69 271.042L357.762 268.074L358.256 269.108L352.185 272.032ZM364.328 266.14L363.833 265.106L369.905 262.182L370.399 263.172L364.328 266.14ZM376.471 260.249L375.976 259.259L382.047 256.291L382.542 257.28L376.471 260.249ZM388.568 254.357L388.119 253.368L394.145 250.399L394.64 251.434L388.568 254.357Z" fill="#9192FF"/>
<path d="M404.759 22.6553C413.034 22.6553 420.634 24.3643 426.796 27.1526C427.111 22.8352 428.37 18.4728 430.708 14.4252C438.399 1.02319 454.904 -3.92386 467.496 3.3618C475.906 8.2189 480.449 17.3035 480.269 26.7928C483.687 25.0389 487.6 24.0495 491.782 24.0495C504.779 24.0495 515.393 33.8087 515.798 45.9964H367.926C367.881 45.7715 367.881 45.5467 367.881 45.3218C367.881 32.8192 384.386 22.6553 404.759 22.6553Z" fill="#EBEBFF"/>
<path fill-rule="evenodd" clip-rule="evenodd" d="M121.922 390.806H0V390.401C0.314812 380.057 9.12956 372.007 20.103 372.007C23.2062 372.007 26.3093 372.682 29.0977 373.986C29.1426 366.116 33.1902 358.92 39.7563 355.097C44.6584 352.264 50.415 351.544 55.9916 353.028C62.108 354.693 67.2349 358.695 70.473 364.317C72.2719 367.465 73.3513 370.838 73.6661 374.346C78.883 372.052 84.9544 370.883 91.3406 370.883C108.25 370.883 121.967 379.383 121.967 389.862C121.967 390.041 121.967 390.266 121.967 390.446L121.922 390.806ZM0.854491 389.951H121.113C121.113 389.921 121.113 389.877 121.113 389.817C121.113 379.833 107.756 371.692 91.3406 371.692C84.8644 371.692 78.6581 372.952 73.4862 375.335L72.9016 375.605L72.8566 374.975C72.6317 371.378 71.5973 367.96 69.7534 364.722C66.6053 359.28 61.6583 355.412 55.7668 353.838C50.415 352.399 44.8833 353.118 40.1611 355.817C33.6849 359.595 29.7723 366.79 29.9072 374.661L29.9521 375.38L29.3225 375.02C26.4892 373.581 23.2961 372.817 20.058 372.817C9.75918 372.817 1.39417 380.327 0.854491 389.951Z" fill="#9192FF"/>
<path d="M360.326 202.863H701.358V378.663C701.358 393.054 689.665 404.703 675.318 404.703H386.321C371.974 404.703 360.326 393.054 360.326 378.663V202.863Z" fill="white"/>
<path d="M342.472 247.701C346.475 234.929 359.067 225.08 372.829 224.045C386.636 223.011 400.713 230.836 406.739 242.844C414.07 242.799 421.265 246.847 424.863 253.053C428.416 259.259 428.146 267.309 424.189 273.291C432.958 274.775 440.784 280.531 444.651 288.267C448.519 295.957 448.294 305.447 444.112 313.002C453.691 308.1 466.014 308.55 475.233 314.126C484.453 319.703 490.254 330.182 489.939 340.661C495.921 331.306 507.389 325.415 518.812 325.954C530.19 326.494 541.074 333.33 546.156 343.224C551.508 327.214 565.809 314.261 582.674 310.124C599.584 305.986 618.563 310.798 631.2 322.446C650.224 325.415 664.076 346.057 659.128 364.047C669.382 372.547 674.644 386.353 672.486 399.261C670.372 412.123 660.882 423.636 648.38 428.583L321.11 428.358L293.227 303.513L342.472 247.701Z" fill="#D1D1FF"/>
<g opacity="0.8">
<path d="M337.3 289.166C341.123 276.349 353.356 266.545 366.668 265.51C379.98 264.431 393.562 272.256 399.364 284.264C406.424 284.174 413.44 288.267 416.858 294.428C420.276 300.634 420.051 308.685 416.228 314.666C424.683 316.195 432.239 321.907 435.972 329.642C439.704 337.333 439.48 346.867 435.432 354.377C444.697 349.475 456.569 349.925 465.474 355.502C474.379 361.033 480 371.512 479.686 382.036C485.442 372.636 496.551 366.745 507.569 367.285C518.587 367.779 529.111 374.66 534.013 384.554C539.185 368.499 552.992 355.547 569.317 351.409C585.643 347.272 603.947 352.039 616.179 363.687C634.528 366.61 647.93 387.253 643.118 405.242C653.057 413.742 658.094 427.549 656.026 440.456C653.912 453.363 644.782 464.876 632.684 469.779L316.478 469.824L289.629 345.023L337.3 289.166Z" fill="white"/>
</g>
<path opacity="0.7" d="M623.419 239.561C577.412 335.893 502.936 448.236 425.357 450.485L336.535 420.128L342.157 330.182C426.751 321.592 493.941 297.576 588.655 208.484L623.419 239.561Z" fill="#FFF2E0"/>
<path d="M618.158 226.024C612.312 244.328 594.143 265.151 574.219 282.241C577.637 276.304 585.418 265.466 585.418 258.989C580.83 263.667 566.979 272.391 558.344 276.394C562.077 271.807 568.778 261.193 573.365 253.593L535.992 268.839C563.381 245.273 586.587 227.868 602.013 209.654L618.158 226.024Z" fill="#E91135"/>
<path opacity="0.4" d="M615.549 221.122C611.951 233.13 601.247 246.937 589.509 258.315C591.533 254.402 596.166 247.251 596.255 243.024C593.557 246.127 585.417 251.974 580.38 254.672C582.584 251.659 586.586 244.598 589.33 239.606L567.518 249.95C583.618 234.254 597.245 222.651 606.374 210.553L615.549 221.122Z" fill="white"/>
<path d="M464.935 272.436C465.07 275.27 464.935 279.992 462.101 281.656C457.424 284.354 453.736 277.743 451.982 274.46C449.959 270.457 450.453 265.555 455.131 263.801C461.247 261.463 464.71 267.174 464.935 272.436Z" fill="#D1D1FF"/>
<path d="M687.597 357.93C687.732 360.764 687.597 365.531 684.763 367.15C680.086 369.848 676.398 363.237 674.689 359.954C672.621 355.996 673.115 351.049 677.793 349.295C683.909 346.957 687.372 352.668 687.597 357.93Z" fill="#D1D1FF"/>
<path d="M443.886 240.595C443.886 242.754 442.132 244.508 439.973 244.508C437.815 244.508 436.016 242.754 436.016 240.595C436.016 238.437 437.815 236.638 439.973 236.638C442.132 236.638 443.886 238.437 443.886 240.595Z" fill="#D1D1FF"/>
<path d="M646.086 311.608C646.086 314.936 643.388 317.589 640.105 317.589C636.776 317.589 634.123 314.936 634.123 311.608C634.123 308.28 636.776 305.626 640.105 305.626C643.388 305.626 646.086 308.28 646.086 311.608Z" fill="#D1D1FF"/>
<path fill-rule="evenodd" clip-rule="evenodd" d="M675.317 405.242H386.319C371.658 405.242 359.74 393.324 359.74 378.663V202.278H701.896V378.663C701.896 393.324 689.978 405.242 675.317 405.242ZM360.865 203.403V378.663C360.865 392.695 372.288 404.118 386.319 404.118H675.317C689.349 404.118 700.772 392.695 700.772 378.663V203.403H360.865Z" fill="#9192FF"/>
<path d="M701.358 160.768V202.863H360.326V160.768C360.326 146.377 371.974 134.729 386.321 134.729H675.318C689.665 134.729 701.358 146.377 701.358 160.768Z" fill="white"/>
<path fill-rule="evenodd" clip-rule="evenodd" d="M701.896 203.403H359.74V160.768C359.74 146.107 371.658 134.189 386.319 134.189H675.317C689.978 134.189 701.896 146.107 701.896 160.768V203.403ZM360.865 202.278H700.772V160.723C700.772 146.692 689.349 135.268 675.317 135.268H386.319C372.288 135.268 360.865 146.692 360.865 160.723V202.278Z" fill="#9192FF"/>
<path d="M408.941 168.773C408.941 176.688 402.555 183.075 394.684 183.075C386.814 183.075 380.428 176.688 380.428 168.773C380.428 160.903 386.814 154.517 394.684 154.517C402.555 154.517 408.941 160.903 408.941 168.773Z" fill="#D1D1FF"/>
<path d="M450.947 168.773C450.947 176.688 444.56 183.075 436.69 183.075C428.82 183.075 422.434 176.688 422.434 168.773C422.434 160.903 428.82 154.517 436.69 154.517C444.56 154.517 450.947 160.903 450.947 168.773Z" fill="white"/>
<path fill-rule="evenodd" clip-rule="evenodd" d="M436.689 183.614C428.504 183.614 421.848 176.958 421.848 168.773C421.848 160.633 428.504 153.977 436.689 153.977C444.874 153.977 451.53 160.633 451.53 168.773C451.53 176.958 444.874 183.614 436.689 183.614ZM436.689 155.101C429.133 155.101 422.972 161.218 422.972 168.773C422.972 176.329 429.133 182.49 436.689 182.49C444.244 182.49 450.406 176.329 450.406 168.773C450.406 161.218 444.244 155.101 436.689 155.101Z" fill="#9192FF"/>
<path d="M545.256 182.4H488.455C480.944 182.4 474.873 176.329 474.873 168.773C474.873 161.263 480.944 155.191 488.455 155.191H545.256C552.767 155.191 558.883 161.263 558.883 168.773C558.883 176.329 552.767 182.4 545.256 182.4Z" fill="white"/>
<path fill-rule="evenodd" clip-rule="evenodd" d="M545.255 182.985H488.454C480.673 182.985 474.287 176.598 474.287 168.773C474.287 160.993 480.673 154.606 488.454 154.606H545.255C553.08 154.606 559.421 160.993 559.421 168.773C559.421 176.598 553.08 182.985 545.255 182.985ZM488.454 155.731C481.258 155.731 475.411 161.577 475.411 168.773C475.411 175.969 481.258 181.86 488.454 181.86H545.255C552.451 181.86 558.297 175.969 558.297 168.773C558.297 161.577 552.451 155.731 545.255 155.731H488.454Z" fill="#9192FF"/>
<path d="M621.8 153.438L586.9 125.824C599.133 109.904 638.395 123.62 661.196 103.697L621.8 153.438Z" fill="#3335CF"/>
<path d="M621.8 153.437L614.109 167.739L589.374 139.406C586.136 135.673 585.191 130.456 586.9 125.824L621.8 153.437Z" fill="#D1D1FF"/>
<path d="M712.781 144.578C698.615 171.292 720.966 206.416 708.284 221.932L673.43 194.318L712.781 144.578Z" fill="#3335CF"/>
<path d="M708.284 221.931C704.147 224.675 698.885 224.99 694.477 222.651L661.242 205.066L673.43 194.318L708.284 221.931Z" fill="#D1D1FF"/>
<path d="M726.543 102.258L699.469 80.8504L730.5 69.4272L726.543 102.258Z" fill="#1B1B43"/>
<path d="M726.543 102.258C722.181 151.414 685.887 197.241 641.813 222.741L601.607 190.945C618.472 137.877 649.864 99.9192 699.469 80.8506L726.543 102.258Z" fill="#C5C5FF"/>
<path d="M641.812 222.741L634.031 242.484L584.201 202.998L601.606 190.945L641.812 222.741Z" fill="#3335CF"/>
<path d="M702.436 134.954C696.05 143.004 684.312 144.398 676.217 138.012C668.166 131.581 666.772 119.888 673.203 111.792C679.59 103.697 691.283 102.348 699.378 108.734C707.473 115.165 708.822 126.858 702.436 134.954Z" fill="white"/>
<path d="M689.214 136.572L689.079 135.448C690.158 135.358 691.193 135.088 692.227 134.728L692.632 135.763C691.508 136.168 690.383 136.482 689.214 136.572ZM685.706 136.482C684.537 136.302 683.412 135.988 682.333 135.493L682.783 134.459C683.772 134.908 684.807 135.223 685.886 135.403L685.706 136.482ZM695.69 134.054L695.016 133.109C695.87 132.48 696.68 131.76 697.354 130.906L698.209 131.58C697.489 132.525 696.635 133.334 695.69 134.054ZM679.365 133.604C678.42 132.84 677.656 131.985 676.936 131.041L677.881 130.366C678.51 131.265 679.23 132.03 680.084 132.75L679.365 133.604ZM699.603 129.467L698.568 128.927C699.063 127.982 699.468 126.993 699.693 125.914L700.772 126.139C700.547 127.308 700.142 128.432 699.603 129.467ZM675.317 127.892C674.912 126.813 674.643 125.644 674.553 124.475L675.677 124.385C675.767 125.464 675.992 126.498 676.352 127.533L675.317 127.892ZM699.963 122.676C699.918 121.596 699.693 120.562 699.378 119.527L700.457 119.168C700.817 120.292 701.042 121.461 701.087 122.631L699.963 122.676ZM675.812 121.147L674.733 120.922C674.913 119.797 675.272 118.673 675.812 117.594L676.801 118.088C676.352 119.033 676.037 120.067 675.812 121.147ZM697.984 116.604C697.399 115.705 696.68 114.895 695.87 114.176L696.635 113.321C697.534 114.131 698.299 115.03 698.928 116.02L697.984 116.604ZM678.555 115.345L677.701 114.625C678.465 113.726 679.365 112.916 680.309 112.287L680.939 113.186C680.069 113.816 679.275 114.535 678.555 115.345ZM693.217 112.332C692.272 111.882 691.238 111.522 690.158 111.297L690.383 110.218C691.553 110.443 692.677 110.803 693.711 111.342L693.217 112.332ZM683.817 111.747L683.457 110.668C684.582 110.308 685.706 110.038 686.875 109.993L686.965 111.117C685.886 111.177 684.837 111.387 683.817 111.747Z" fill="#9192FF"/>
<path d="M595.896 240.326L595.041 239.606C593.737 238.572 593.512 236.683 594.547 235.379L629.491 191.215C630.525 189.911 632.459 189.686 633.763 190.72L634.618 191.44C635.922 192.474 636.147 194.363 635.113 195.667L600.168 239.831C599.134 241.135 597.2 241.36 595.896 240.326Z" fill="#1B1B43"/>
<path d="M657.868 625.341H651.122V624.217H657.868V625.341ZM644.376 625.341H637.63V624.217H644.376V625.341ZM630.884 625.341H624.138V624.217H630.884V625.341ZM617.392 625.341H610.646V624.217H617.392V625.341ZM603.9 625.341H597.154V624.217H603.9V625.341ZM590.408 625.341H583.662V624.217H590.408V625.341ZM576.916 625.341H570.17V624.217H576.916V625.341ZM563.424 625.341H556.678V624.217H563.424V625.341ZM549.932 625.341H543.186V624.217H549.932V625.341ZM536.44 625.341H529.694V624.217H536.44V625.341ZM522.948 625.341C520.61 625.296 518.316 624.936 516.112 624.172L516.517 623.093C518.586 623.812 520.745 624.172 522.948 624.217V625.341ZM658.677 625.341L658.632 624.217C660.836 624.127 662.995 623.677 665.064 622.913L665.423 623.947C663.265 624.802 661.016 625.251 658.677 625.341ZM510.086 620.934C508.242 619.495 506.623 617.831 505.319 615.942L506.263 615.267C507.477 617.111 509.007 618.685 510.76 620.034L510.086 620.934ZM671.45 620.529L670.73 619.675C672.439 618.28 673.923 616.661 675.093 614.817L676.037 615.402C674.778 617.381 673.249 619.09 671.45 620.529ZM502.395 609.691C501.856 607.757 501.586 605.778 501.586 603.799V602.855H502.71V603.799C502.71 605.688 502.98 607.577 503.475 609.376L502.395 609.691ZM678.78 609.106L677.701 608.836C678.106 607.172 678.331 605.508 678.331 603.799V602.27H679.455V603.799C679.455 605.598 679.23 607.352 678.78 609.106ZM502.71 596.109H501.586V589.363H502.71V596.109ZM679.455 595.524H678.331V588.778H679.455V595.524ZM502.71 582.617H501.586V575.871H502.71V582.617ZM679.455 582.032H678.331V575.286H679.455V582.032ZM502.71 569.125H501.586V562.379H502.71V569.125ZM679.455 568.54H678.331V561.794H679.455V568.54ZM502.71 555.633H501.586V548.887H502.71V555.633ZM679.455 555.048H678.331V548.302H679.455V555.048ZM502.71 542.141H501.586V535.395H502.71V542.141ZM679.455 541.556H678.331V534.81H679.455V541.556ZM502.71 528.649H501.586V524.152C501.586 523.402 501.631 522.637 501.721 521.858L502.845 521.993C502.755 522.712 502.71 523.432 502.71 524.152V528.649ZM679.455 528.064H678.331V524.152C678.331 523.222 678.271 522.308 678.151 521.408L679.23 521.273C679.38 522.233 679.455 523.192 679.455 524.152V528.064ZM504.554 515.697L503.52 515.247C504.509 513.133 505.768 511.199 507.342 509.49L508.197 510.255C506.668 511.874 505.454 513.718 504.554 515.697ZM676.217 515.157C675.272 513.223 673.968 511.424 672.439 509.85L673.249 509.041C674.868 510.705 676.217 512.593 677.251 514.662L676.217 515.157ZM513.324 506.252L512.784 505.263C514.808 504.138 517.012 503.374 519.26 502.969L519.485 504.049C517.327 504.453 515.258 505.173 513.324 506.252ZM667.132 505.982C665.198 504.993 663.085 504.318 660.926 503.959L661.106 502.879C663.399 503.194 665.603 503.914 667.672 504.948L667.132 505.982ZM654.225 503.779H647.479V502.654H654.225V503.779ZM640.733 503.779H633.987V502.654H640.733V503.779ZM627.241 503.779H620.495V502.654H627.241V503.779ZM613.749 503.779H607.003V502.654H613.749V503.779ZM600.257 503.779H593.511V502.654H600.257V503.779ZM586.765 503.779H580.019V502.654H586.765V503.779ZM573.273 503.779H566.527V502.654H573.273V503.779ZM559.781 503.779H553.035V502.654H559.781V503.779ZM546.289 503.779H539.543V502.654H546.289V503.779ZM532.797 503.779H526.051V502.654H532.797V503.779Z" fill="#9192FF"/>
<path d="M645.546 605.868H502.037C492.862 605.868 485.441 598.402 485.441 589.228V497.482C485.441 488.308 492.862 480.887 502.037 480.887H645.546C654.721 480.887 662.141 488.308 662.141 497.482V589.228C662.141 598.402 654.721 605.868 645.546 605.868Z" fill="#9192FF"/>
<path d="M535.272 592.736H516.158V553.879H535.272V592.736Z" fill="white"/>
<path d="M567.336 592.736H548.178V555.138H567.336V592.736Z" fill="white"/>
<path d="M599.358 592.736H580.244V535.485H599.358V592.736Z" fill="white"/>
<path d="M631.424 592.736H612.266V518.665H631.424V592.736Z" fill="white"/>
<path d="M625.129 502.969H522.455V498.472H625.129V502.969Z" fill="white"/>
<path d="M214.567 375.335L189.652 394.629L186.414 327.934L190.237 330.722C199.681 337.693 206.562 347.587 209.8 358.875L214.567 375.335Z" fill="#E91135"/>
<path d="M282.162 444.594L272.808 434.295C272.808 434.295 278.429 443.559 276.99 444.279C273.123 446.213 270.964 440.861 264.758 438.702L245.419 438.252L204.718 420.713C196.084 416.98 190.327 408.66 189.877 399.306L189.652 394.628L214.568 375.335L219.29 391.75L261.205 418.509L277.485 423.007C280.453 423.816 282.927 425.885 284.366 428.628L289.898 439.467L282.162 444.594Z" fill="#FFBC96"/>
<path d="M214.298 398.631L213.309 397.777L218.795 391.346L219.785 392.155L214.298 398.631Z" fill="#D28572"/>
<path d="M216.996 466.451L247.488 463.752C267.321 461.998 284.591 478.054 285.58 499.101L292.461 649.222L250.411 650.526L216.996 466.451Z" fill="#26289C"/>
<path d="M284.725 644.949L286.659 664.963L317.375 690.507H255.087L253.783 649.042L284.725 644.949Z" fill="#1B1B43"/>
<path d="M274.336 676.071L272.762 674.047L285.849 663.928L287.423 665.952L274.336 676.071Z" fill="white"/>
<path d="M270.559 644.949L272.493 664.963L303.209 690.507H240.876L239.617 649.042L270.559 644.949Z" fill="#D1D1FF"/>
<path d="M260.17 676.071L258.596 674.047L271.683 663.928L273.257 665.952L260.17 676.071Z" fill="white"/>
<path d="M286.031 653.134H234.447L197.704 540.027L192.532 524.196L119.045 523.881C114.548 523.836 110.186 521.723 106.498 518.619C98.6726 512.053 95.0748 501.665 96.5139 491.546L102.945 445.583L212.14 459.75C232.828 462.448 249.558 477.964 253.785 498.382L286.031 653.134Z" fill="#3335CF"/>
<path d="M207.685 524.196L197.701 540.027L192.529 524.196H207.685Z" fill="#1B1B43"/>
<path d="M194.644 437.713C194.105 439.842 193.55 441.971 192.98 444.099L189.113 459.885L138.203 457.771L101.55 456.242C91.8357 455.837 84.7749 446.843 86.7537 437.308L103.844 355.052C106.047 341.066 117.425 330.272 131.502 328.833L173.327 324.516L186.864 328.383C200.086 335.489 200.086 348.351 200.716 356.761C203.504 393.594 200.086 415.901 194.644 437.713Z" fill="#E91135"/>
<path opacity="0.3" d="M159.654 434.61C159.159 436.724 193.114 441.491 192.529 443.649L188.662 459.435L137.752 457.321C119.988 443.919 113.287 414.687 106.811 378.124L159.654 434.61Z" fill="#1B1B43"/>
<path d="M149.536 347.856C151.784 350.24 154.303 352.354 157.181 353.883C159.969 355.457 163.072 356.581 166.266 356.986C169.414 357.391 172.742 357.121 175.53 355.592C178.318 354.198 180.162 351.229 180.477 347.991L180.972 348.036C180.972 349.745 180.522 351.454 179.713 352.938C178.858 354.467 177.554 355.727 176.07 356.581C173.012 358.335 169.414 358.65 166.086 358.245C162.713 357.751 159.475 356.581 156.596 354.827C153.718 353.118 151.2 350.825 149.176 348.171L149.536 347.856Z" fill="#1B1B43"/>
<path d="M201.389 398.136L200.445 398.046C201.389 385.094 200.445 369.129 197.656 350.69L198.601 350.555C201.389 369.084 202.333 385.094 201.389 398.136Z" fill="#1B1B43"/>
<path d="M287.965 453.318H240.023V443.874H287.965V453.318Z" fill="#1B1B43"/>
<path d="M370.893 453.319H274.605L318.904 368.679H415.147L370.893 453.319Z" fill="#9192FF"/>
<path d="M149.85 315.521L127.274 314.082L122.596 304.412L120.842 313.902L112.792 313.272C103.438 300.23 104.742 274.775 127.948 268.659C127.588 249.95 148.861 245.273 160.149 256.381L149.85 315.521Z" fill="#1B1B43"/>
<path d="M179.443 294.383V329.867C179.443 330.197 179.443 330.512 179.443 330.812C178.858 338.142 171.797 343.314 164.556 341.425C153.898 338.682 146.477 329.058 146.567 318.039L146.747 294.383H179.443Z" fill="#FFBC96"/>
<path d="M178.993 313.317V333.465C178.993 333.795 178.993 334.109 178.993 334.409C169.459 332.88 158.486 321.862 155.787 309.899L178.993 313.317Z" fill="#1B1B43"/>
<path d="M198.241 300.59C197.747 303.423 197.072 306.301 196.218 309.045C193.384 318.084 188.302 325.55 179.173 324.246C157.721 321.187 145.803 299.105 145.803 299.105L160.464 282.331L170.313 269.108L199.771 281.836C199.771 281.836 199.95 290.875 198.241 300.59Z" fill="#FFBC96"/>
<path d="M145.489 301.669C134.066 293.799 135.235 270.952 147.468 261.148C154.664 255.392 163.838 252.513 173.058 253.323C198.333 255.661 213.579 275.135 204.584 283.59C193.835 293.664 171.933 274.775 171.933 274.775C168.83 288.357 161.545 293.169 152.145 293.439L145.489 301.669Z" fill="#1B1B43"/>
<path d="M141.126 269.603C140.541 267.4 140.991 264.926 141.98 262.812C142.969 260.654 144.544 258.81 146.387 257.371C148.231 255.931 150.435 254.897 152.729 254.402C154.977 253.953 157.406 254.043 159.52 254.942C157.316 255.662 155.472 256.381 153.673 257.281C151.919 258.225 150.3 259.259 148.771 260.429C147.242 261.598 145.803 262.947 144.544 264.431C143.284 265.915 142.16 267.534 141.126 269.603Z" fill="#E91135"/>
<path d="M156.147 292.225C157.946 296.767 156.372 301.669 152.639 303.198C148.861 304.682 144.364 302.209 142.52 297.667C140.721 293.124 142.295 288.222 146.028 286.738C149.805 285.254 154.303 287.683 156.147 292.225Z" fill="#FFBC96"/>
<path d="M149.357 299.825C149.491 298.251 149.491 296.767 149.042 295.418C148.592 294.024 147.737 292.854 146.748 291.595L147.063 291.235C148.502 291.955 149.761 293.349 150.256 295.013C150.796 296.677 150.571 298.521 149.806 299.96L149.357 299.825Z" fill="#1B1B43"/>
<path d="M184.571 295.058C184.571 296.407 183.582 297.486 182.368 297.486C181.153 297.486 180.209 296.407 180.209 295.058C180.209 293.754 181.153 292.674 182.368 292.674C183.582 292.674 184.571 293.754 184.571 295.058Z" fill="#1B1B43"/>
<path d="M195.993 296.992C195.858 298.161 194.869 299.016 193.79 298.881C192.71 298.746 191.991 297.666 192.126 296.497C192.261 295.328 193.25 294.473 194.329 294.608C195.364 294.743 196.128 295.778 195.993 296.992Z" fill="#1B1B43"/>
<path d="M184.435 289.032C184.525 290.156 182.726 290.246 180.072 290.336C177.419 290.426 175.575 291.235 175.575 290.516C175.53 289.796 177.509 287.997 180.117 287.547C182.816 287.098 184.345 287.682 184.435 289.032Z" fill="#1B1B43"/>
<path d="M196.308 289.076C198.196 289.751 199.411 291.775 199.321 292.494C199.231 293.169 197.972 292.179 195.993 291.865C194.059 291.505 192.71 291.235 192.935 290.111C193.159 288.806 194.329 288.357 196.308 289.076Z" fill="#1B1B43"/>
<path d="M189.743 298.971C190.282 299.6 190.822 300.14 191.407 300.68L192.261 301.489C192.576 301.759 192.891 302.074 193.161 302.524C193.341 302.748 193.43 303.018 193.475 303.378C193.475 303.693 193.385 304.008 193.251 304.278C192.936 304.772 192.576 305.087 192.216 305.312C191.452 305.852 190.597 306.032 189.788 306.211L189.608 305.717C190.282 305.267 191.002 304.907 191.542 304.412C191.766 304.188 192.036 303.918 192.126 303.693C192.216 303.468 192.216 303.423 192.081 303.153C191.811 302.703 191.047 302.074 190.597 301.399C190.057 300.77 189.608 300.05 189.338 299.196L189.743 298.971Z" fill="#1B1B43"/>
<path d="M178.86 306.931C180.164 308.415 181.558 309.809 183.177 310.663C184.841 311.608 186.685 311.833 188.664 311.653L188.799 312.103C187.855 312.552 186.775 312.777 185.696 312.732C184.616 312.642 183.537 312.327 182.593 311.833C180.659 310.753 179.265 309.044 178.41 307.2L178.86 306.931Z" fill="#1B1B43"/>
<path opacity="0.2" d="M176.43 300.23C176.43 303.153 174.047 305.537 171.123 305.537C168.2 305.537 165.816 303.153 165.816 300.23C165.816 297.261 168.2 294.923 171.123 294.923C174.047 294.923 176.43 297.261 176.43 300.23Z" fill="#FE5B52"/>
<path opacity="0.2" d="M198.242 300.59C197.747 303.423 197.073 306.301 196.218 309.045C195.364 308.1 194.869 306.886 194.869 305.537C194.869 303.288 196.263 301.399 198.242 300.59Z" fill="#FE5B52"/>
<path d="M148.681 386.084L116.435 400.97L106.811 378.124L137.527 363.507L148.681 386.084Z" fill="#E91135"/>
<path d="M251.355 442.705C250.501 442.3 249.961 442.031 249.961 442.031L250.276 441.401C250.276 441.401 250.86 441.671 251.67 442.12L251.355 442.705Z" fill="#C5C5FF"/>
<path d="M264.083 445.898C263.093 447.877 255.493 444.369 251.94 442.66C254.683 444.189 259.45 447.157 257.337 448.821C255.628 450.08 251.895 447.337 239.662 442.255C241.506 443.11 252.434 448.326 249.691 450.305C246.678 452.464 233.816 447.742 233.816 447.742L222.617 453.723H209.71L163.343 454.038C160.419 454.038 157.541 453.678 154.753 452.959C149.266 451.564 144.049 448.821 139.687 445.133C136.898 442.84 134.515 440.096 132.491 437.128C131.007 434.879 129.748 432.451 128.668 429.932L116.436 400.97L148.681 386.083L165.456 420.218L220.908 432.271L236.379 428.403C239.707 427.549 244.429 428.943 247.353 430.742C254.458 435.104 265.027 444.009 264.083 445.898Z" fill="#FFBC96"/>
<path opacity="0.2" d="M155.606 448.147C155.606 449.856 155.292 451.475 154.752 452.959C149.265 451.565 144.048 448.821 139.686 445.133C136.898 442.84 134.514 440.096 132.49 437.128C134.964 435.149 138.022 433.98 141.395 433.98C149.265 433.98 155.606 440.321 155.606 448.147Z" fill="#FE5B52"/>
<path d="M220.818 432.001C224.686 430.742 228.554 429.618 232.556 428.808C234.535 428.404 236.559 428.044 238.583 427.954C239.602 427.894 240.637 427.924 241.686 428.044C242.226 428.134 242.72 428.269 243.26 428.404C243.755 428.538 244.204 428.763 244.699 428.943C248.477 430.652 251.76 433.081 254.953 435.599C258.146 438.163 261.114 440.861 264.038 443.694L264.173 443.829L264.217 444.009C264.307 444.594 264.218 445.179 263.903 445.718C263.678 445.988 263.453 446.258 263.183 446.348C262.913 446.528 262.643 446.618 262.374 446.618C261.339 446.798 260.395 446.573 259.495 446.348C257.696 445.853 256.122 445.044 254.503 444.234C252.929 443.425 251.355 442.525 249.871 441.581C248.297 440.681 246.858 439.647 245.374 438.702L246.048 437.623C248.702 439.152 251.265 440.816 253.694 442.66C254.908 443.604 256.122 444.594 257.157 445.853C257.427 446.168 257.651 446.528 257.831 446.977C257.921 447.202 257.966 447.472 257.966 447.787C257.966 448.102 257.876 448.417 257.651 448.641C257.247 449.136 256.752 449.271 256.347 449.406C255.897 449.496 255.493 449.541 255.088 449.541L254.998 449.586L254.863 449.496L240.831 443.649L241.281 442.66C243.485 443.694 245.599 444.774 247.667 446.123C248.657 446.843 249.691 447.472 250.456 448.731C250.636 449.046 250.726 449.496 250.546 449.946C250.366 450.395 250.051 450.665 249.736 450.8C249.062 451.115 248.432 451.205 247.802 451.25C245.284 451.295 242.945 450.71 240.607 450.126C238.268 449.496 235.974 448.776 233.726 447.967L233.906 447.472C236.154 448.237 238.448 448.911 240.786 449.451C243.08 449.991 245.464 450.485 247.757 450.395C248.837 450.35 250.141 449.856 249.646 449.136C249.107 448.282 248.072 447.562 247.128 446.933C245.149 445.673 242.99 444.594 240.831 443.649L241.236 442.66L255.313 448.417L255.043 448.372C255.403 448.327 255.763 448.282 256.032 448.192C256.347 448.147 256.617 448.012 256.707 447.877C256.887 447.832 256.617 447.112 256.212 446.618C255.313 445.538 254.143 444.549 252.929 443.649C250.546 441.851 247.982 440.232 245.419 438.702L246.093 437.623C247.577 438.567 249.017 439.602 250.501 440.501C251.985 441.446 253.514 442.3 255.088 443.155C256.617 443.919 258.191 444.729 259.81 445.179C260.62 445.403 261.474 445.583 262.149 445.448L262.419 445.403C262.464 445.358 262.509 445.313 262.598 445.313C262.733 445.269 262.778 445.134 262.868 445.089C263.003 444.864 263.048 444.504 263.003 444.279L263.183 444.549C260.35 441.761 257.337 439.062 254.233 436.499C251.13 433.98 247.892 431.507 244.339 429.843L242.945 429.303C242.495 429.168 242.046 429.078 241.551 428.943C240.592 428.823 239.617 428.793 238.628 428.853C236.649 428.943 234.67 429.213 232.691 429.573C228.734 430.292 224.821 431.327 220.998 432.496L220.818 432.001Z" fill="#D28572"/>
<path d="M116.661 401.42L116.256 400.52L148.052 385.859L134.785 354.873L135.684 354.468L149.311 386.354L116.661 401.42Z" fill="#1B1B43"/>
<path d="M121.203 682.367H119.494V537.104H121.203V682.367Z" fill="#1B1B43"/>
<path d="M160.96 543.535H79.738C74.2512 543.535 69.7539 539.083 69.7539 533.551C69.7539 528.064 74.2512 523.567 79.738 523.567H160.96C166.491 523.567 170.944 528.064 170.944 533.551C170.944 539.083 166.491 543.535 160.96 543.535Z" fill="#D1D1FF"/>
<path d="M154.529 691.812H86.2148V690.148C86.2148 681.872 92.9158 675.126 101.236 675.126H139.508C147.783 675.126 154.529 681.872 154.529 690.148V691.812Z" fill="#D1D1FF"/>
<path d="M361.135 691.272L217.176 463.078L218.615 462.178L362.574 690.372L361.135 691.272Z" fill="#1B1B43"/>
<path d="M218.615 691.272L217.176 690.372L361.135 462.178L362.574 463.078L218.615 691.272Z" fill="#1B1B43"/>
<path d="M416.003 472.343H163.748V453.319H416.003V472.343Z" fill="#D1D1FF"/>
<path fill-rule="evenodd" clip-rule="evenodd" d="M184.884 150.019C155.832 150.019 132.176 126.363 132.176 97.3106C132.176 68.258 155.832 44.6021 184.884 44.6021C213.982 44.6021 237.638 68.258 237.638 97.3106C237.638 126.363 213.982 150.019 184.884 150.019ZM184.884 45.7264C156.461 45.7264 133.3 68.8426 133.3 97.3106C133.3 125.734 156.461 148.895 184.884 148.895C213.352 148.895 236.514 125.734 236.514 97.3106C236.514 68.8426 213.352 45.7264 184.884 45.7264Z" fill="#9192FF"/>
<path d="M277.889 76.668C277.889 108.329 252.209 134.009 220.548 134.009C188.887 134.009 163.207 108.329 163.207 76.668C163.207 44.9619 188.887 19.2822 220.548 19.2822C252.209 19.2822 277.889 44.9619 277.889 76.668Z" fill="#EBEBFF"/>
<path d="M220.55 77.7473L188.754 52.8321L189.833 51.4829L220.55 75.5436L237.64 61.0622L238.764 62.3664L220.55 77.7473Z" fill="#1B1B43"/>
<path d="M80.1874 208.844V237.942C80.1874 242.439 76.7244 246.082 72.3171 246.397V258.809L63.3674 246.442H42.5898C37.9126 246.442 34.0898 242.664 34.0898 237.942V208.844C34.0898 204.122 37.9126 200.344 42.5898 200.344H71.6874C76.4096 200.344 80.1874 204.122 80.1874 208.844Z" fill="white"/>
<path fill-rule="evenodd" clip-rule="evenodd" d="M72.9023 260.564L63.0982 246.982H42.5904C37.5984 246.982 33.5508 242.934 33.5508 237.942V208.844C33.5508 203.852 37.5984 199.76 42.5904 199.76H71.6881C76.6801 199.76 80.7726 203.852 80.7726 208.844V237.942C80.7726 242.484 77.3547 246.352 72.9023 246.937V260.564ZM42.5904 200.929C38.228 200.929 34.6751 204.482 34.6751 208.844V237.942C34.6751 242.304 38.228 245.902 42.5904 245.902H63.6379L71.778 257.056V245.902L72.2727 245.857C76.4102 245.542 79.6483 242.08 79.6483 237.942V208.844C79.6483 204.482 76.0954 200.929 71.6881 200.929H42.5904Z" fill="#9192FF"/>
<path d="M56.5309 238.392L44.8828 221.527L47.6711 219.638L56.261 232.005L69.1683 208.889L72.0916 210.553L56.5309 238.392Z" fill="#9192FF"/>
<path d="M713.634 691.812H22.666V690.103H713.634V691.812Z" fill="#1B1B43"/>
</svg>
