<svg width="14" height="16" viewBox="0 0 14 16" fill="none" xmlns="http://www.w3.org/2000/svg">
<path d="M1.93276 13.8796L1.93278 13.8797C2.08218 14.0817 2.3022 14.1938 2.53579 14.1938H11.4642C11.6978 14.1938 11.9178 14.0816 12.0672 13.8797C12.2159 13.6784 12.2704 13.4197 12.215 13.1688C11.9863 12.1337 11.525 11.3173 10.8956 10.7604C10.2672 10.2045 9.46329 9.90006 8.53362 9.90006H5.46629C4.5366 9.90006 3.73266 10.2045 3.10425 10.7603C2.47481 11.3171 2.01359 12.1334 1.78491 13.1685L1.93276 13.8796ZM1.93276 13.8796C1.78408 13.6787 1.72945 13.4197 1.78491 13.1685L1.93276 13.8796ZM13.1051 12.9529L13.1051 12.9529C12.5621 10.4953 10.8142 8.94375 8.53369 8.94375H5.46637C3.1859 8.94375 1.43786 10.4953 0.895012 12.9529C0.777701 13.4831 0.892084 14.0346 1.21045 14.465C1.53061 14.898 2.01346 15.15 2.53587 15.15H11.4645C11.9868 15.15 12.4696 14.898 12.7898 14.4652L12.7898 14.4651C13.1081 14.0346 13.2221 13.4833 13.1051 12.9529ZM7.00003 7.7125C8.78359 7.7125 10.2174 6.16372 10.2174 4.28125C10.2174 2.39878 8.78359 0.85 7.00003 0.85C5.21647 0.85 3.78271 2.39878 3.78271 4.28125C3.78271 6.16372 5.21647 7.7125 7.00003 7.7125ZM7.00003 1.80625C8.26079 1.80625 9.30395 2.907 9.30395 4.28131C9.30395 5.65548 8.26092 6.75637 7.00003 6.75637C5.73927 6.75637 4.69612 5.65562 4.69612 4.28131C4.69612 2.90714 5.73925 1.80625 7.00003 1.80625Z" fill="none" stroke="#757171" stroke-width=".8"/>
</svg>
