<svg width="38" height="37" viewBox="0 0 38 37" fill="none" xmlns="http://www.w3.org/2000/svg">
<path d="M8.88004 6.94368L24.0288 2.8087L23.2266 1.18714C22.7017 0.133121 21.4215 -0.30214 20.3675 0.222733L6.80615 6.94368H8.88004Z" fill="url(#paint0_linear_148_431)"/>
<path d="M28.7314 2.92822C28.5437 2.92822 28.3559 2.95383 28.1681 3.00503L24.6092 3.97797L13.7405 6.94372H26.0771H31.4539L30.7882 4.50284C30.5322 3.55124 29.6702 2.92822 28.7314 2.92822Z" fill="url(#paint1_linear_148_431)"/>
<path d="M33.6773 8.43701H33.1908H32.5294H31.8679H26.8198H8.26996H5.83762H3.78933H3.40955H2.1379C1.46367 8.43701 0.861988 8.74852 0.469399 9.23926C0.290174 9.46542 0.153622 9.72573 0.0768108 10.0116C0.0298709 10.1909 0 10.3786 0 10.5706V10.8267V13.259V34.3436C0 35.5214 0.955867 36.4772 2.13363 36.4772H33.673C34.8508 36.4772 35.8066 35.5214 35.8066 34.3436V28.3907H23.1457C21.1443 28.3907 19.5185 26.7649 19.5185 24.7636V22.8092V22.1477V21.4863V20.0184C19.5185 19.0369 19.911 18.1451 20.5469 17.4922C21.1102 16.9118 21.8655 16.5192 22.7104 16.4211C22.8512 16.404 22.9963 16.3955 23.1414 16.3955H34.0314H34.6929H35.3543H35.8066V10.5706C35.8109 9.39288 34.855 8.43701 33.6773 8.43701Z" fill="url(#paint2_linear_148_431)"/>
<path d="M37.3044 18.4354C37.091 18.2391 36.8393 18.0898 36.5576 17.9916C36.3399 17.9191 36.1096 17.8765 35.8663 17.8765H35.8108H35.7682H35.1067H32.7213H23.1456C21.9678 17.8765 21.012 18.8323 21.012 20.0101V21.0726V21.734V22.3955V24.7595C21.012 25.9373 21.9678 26.8932 23.1456 26.8932H35.8108H35.8663C36.1096 26.8932 36.34 26.8505 36.5576 26.7779C36.8393 26.6841 37.091 26.5304 37.3044 26.3341C37.7311 25.9458 37.9999 25.3825 37.9999 24.7596V20.0101C37.9999 19.387 37.7311 18.8237 37.3044 18.4354ZM27.6006 22.8094C27.6006 23.3983 27.1227 23.8762 26.5338 23.8762H25.8254C25.2366 23.8762 24.7586 23.3983 24.7586 22.8094V22.101C24.7586 21.7596 24.9165 21.4566 25.1683 21.2646C25.3518 21.1238 25.578 21.0342 25.8254 21.0342H26.0047H26.5338C27.1227 21.0342 27.6006 21.5121 27.6006 22.101V22.8094Z" fill="url(#paint3_linear_148_431)"/>
<defs>
<linearGradient id="paint0_linear_148_431" x1="4.54001" y1="0.285534" x2="9.48477" y2="12.8334" gradientUnits="userSpaceOnUse">
<stop stop-color="#008FFB"/>
<stop offset="1" stop-color="#ADD3EF"/>
</linearGradient>
<linearGradient id="paint1_linear_148_431" x1="11.4098" y1="3.09335" x2="13.1804" y2="11.0842" gradientUnits="userSpaceOnUse">
<stop stop-color="#008FFB"/>
<stop offset="1" stop-color="#ADD3EF"/>
</linearGradient>
<linearGradient id="paint2_linear_148_431" x1="-4.7114" y1="9.59006" x2="23.5431" y2="46.5032" gradientUnits="userSpaceOnUse">
<stop stop-color="#008FFB"/>
<stop offset="1" stop-color="#ADD3EF"/>
</linearGradient>
<linearGradient id="paint3_linear_148_431" x1="18.7767" y1="18.2472" x2="26.4716" y2="33.0795" gradientUnits="userSpaceOnUse">
<stop stop-color="#008FFB"/>
<stop offset="1" stop-color="#ADD3EF"/>
</linearGradient>
</defs>
</svg>
