<svg width="22" height="22" viewBox="0 0 22 22" fill="none" xmlns="http://www.w3.org/2000/svg">
<path d="M11.0003 0.166504C8.8577 0.166504 6.76319 0.801868 4.98165 1.99225C3.20012 3.18263 1.81158 4.87457 0.991636 6.8541C0.171686 8.83363 -0.04285 11.0119 0.375157 13.1133C0.793163 15.2148 1.82494 17.1451 3.34001 18.6602C4.85508 20.1752 6.78539 21.207 8.88685 21.625C10.9883 22.043 13.1665 21.8285 15.1461 21.0085C17.1256 20.1886 18.8175 18.8 20.0079 17.0185C21.1983 15.237 21.8337 13.1425 21.8337 10.9998C21.8337 9.57718 21.5535 8.16846 21.009 6.8541C20.4646 5.53974 19.6666 4.34548 18.6607 3.33951C17.6547 2.33355 16.4604 1.53557 15.1461 0.991142C13.8317 0.446716 12.423 0.166504 11.0003 0.166504ZM13.9362 12.3973C14.0377 12.498 14.1183 12.6179 14.1733 12.7499C14.2283 12.8819 14.2566 13.0235 14.2566 13.1665C14.2566 13.3095 14.2283 13.4511 14.1733 13.5831C14.1183 13.7151 14.0377 13.835 13.9362 13.9357C13.8355 14.0372 13.7156 14.1178 13.5836 14.1728C13.4516 14.2278 13.31 14.2561 13.167 14.2561C13.024 14.2561 12.8824 14.2278 12.7504 14.1728C12.6184 14.1178 12.4985 14.0372 12.3978 13.9357L11.0003 12.5273L9.60283 13.9357C9.50212 14.0372 9.3823 14.1178 9.25029 14.1728C9.11827 14.2278 8.97668 14.2561 8.83366 14.2561C8.69065 14.2561 8.54905 14.2278 8.41704 14.1728C8.28502 14.1178 8.16521 14.0372 8.0645 13.9357C7.96296 13.835 7.88236 13.7151 7.82736 13.5831C7.77237 13.4511 7.74405 13.3095 7.74405 13.1665C7.74405 13.0235 7.77237 12.8819 7.82736 12.7499C7.88236 12.6179 7.96296 12.498 8.0645 12.3973L9.47283 10.9998L8.0645 9.60234C7.8605 9.39834 7.7459 9.12166 7.7459 8.83317C7.7459 8.54468 7.8605 8.268 8.0645 8.064C8.26849 7.86001 8.54517 7.7454 8.83366 7.7454C9.12216 7.7454 9.39884 7.86001 9.60283 8.064L11.0003 9.47234L12.3978 8.064C12.6018 7.86001 12.8785 7.7454 13.167 7.7454C13.4555 7.7454 13.7322 7.86001 13.9362 8.064C14.1402 8.268 14.2548 8.54468 14.2548 8.83317C14.2548 9.12166 14.1402 9.39834 13.9362 9.60234L12.5278 10.9998L13.9362 12.3973Z" fill="#E91135"/>
</svg>
