<svg width="16" height="12" viewBox="0 0 16 12" fill="none" xmlns="http://www.w3.org/2000/svg">
<path d="M14.222 0.666504H1.77756C1.54181 0.666504 1.31572 0.760154 1.14902 0.926853C0.982322 1.09355 0.888672 1.31964 0.888672 1.55539V10.4443C0.888672 10.68 0.982322 10.9061 1.14902 11.0728C1.31572 11.2395 1.54181 11.3332 1.77756 11.3332H14.222C14.4578 11.3332 14.6838 11.2395 14.8505 11.0728C15.0172 10.9061 15.1109 10.68 15.1109 10.4443V1.55539C15.1109 1.31964 15.0172 1.09355 14.8505 0.926853C14.6838 0.760154 14.4578 0.666504 14.222 0.666504ZM13.5376 10.4443H2.51534L5.62645 7.2265L4.98645 6.60873L1.77756 9.92873V2.23095L7.30201 7.72873C7.46855 7.89428 7.69384 7.98721 7.92867 7.98721C8.1635 7.98721 8.38879 7.89428 8.55534 7.72873L14.222 2.09317V9.87095L10.9509 6.59984L10.3242 7.2265L13.5376 10.4443ZM2.35978 1.55539H13.502L7.92867 7.09761L2.35978 1.55539Z" fill="#757171"/>
</svg>
