<svg width="25" height="18" viewBox="0 0 25 18" fill="none" xmlns="http://www.w3.org/2000/svg">
<path fill-rule="evenodd" clip-rule="evenodd" d="M12.5408 15.7081C17.0979 15.7081 20.3385 12.8445 22.2362 10.4597C22.8945 9.63258 22.8945 8.52837 22.2362 7.70122C20.3385 5.31641 17.0979 2.45286 12.5408 2.45286C7.98381 2.45286 4.74323 5.31641 2.84545 7.70122C2.18723 8.52837 2.18723 9.63258 2.84545 10.4597C4.74323 12.8445 7.9838 15.7081 12.5408 15.7081ZM23.9649 11.8354C25.2638 10.203 25.2638 7.95791 23.9649 6.32559C21.9012 3.73227 18.0932 0.243652 12.5408 0.243652C6.98852 0.243652 3.1805 3.73227 1.1168 6.32559C-0.182162 7.95791 -0.182163 10.203 1.1168 11.8354C3.1805 14.4287 6.98852 17.9173 12.5408 17.9173C18.0932 17.9173 21.9012 14.4287 23.9649 11.8354Z" fill="#AEAEB2"/>
<path fill-rule="evenodd" clip-rule="evenodd" d="M14.7507 9.08052C14.7507 10.3006 13.7616 11.2897 12.5415 11.2897C11.3213 11.2897 10.3323 10.3006 10.3323 9.08052C10.3323 9.04916 10.3329 9.01796 10.3342 8.98692C10.5064 9.04754 10.6916 9.08052 10.8846 9.08052C11.7996 9.08052 12.5415 8.3387 12.5415 7.42362C12.5415 7.23069 12.5085 7.04546 12.4479 6.87326C12.4789 6.87197 12.5101 6.87131 12.5415 6.87131C13.7616 6.87131 14.7507 7.86041 14.7507 9.08052ZM16.9599 9.08052C16.9599 11.5207 14.9817 13.4989 12.5415 13.4989C10.1012 13.4989 8.12305 11.5207 8.12305 9.08052C8.12305 6.6403 10.1012 4.66211 12.5415 4.66211C14.9817 4.66211 16.9599 6.6403 16.9599 9.08052Z" fill="#AEAEB2"/>
</svg>
