<svg width="25" height="26" viewBox="0 0 25 26" fill="none" xmlns="http://www.w3.org/2000/svg">
<path fill-rule="evenodd" clip-rule="evenodd" d="M12.5408 19.7081C17.0979 19.7081 20.3385 16.8445 22.2362 14.4597C22.8945 13.6326 22.8945 12.5284 22.2362 11.7012C20.3385 9.31641 17.0979 6.45286 12.5408 6.45286C7.98381 6.45286 4.74323 9.31641 2.84545 11.7012C2.18723 12.5284 2.18723 13.6326 2.84545 14.4597C4.74323 16.8445 7.9838 19.7081 12.5408 19.7081ZM23.9649 15.8354C25.2638 14.203 25.2638 11.9579 23.9649 10.3256C21.9012 7.73227 18.0932 4.24365 12.5408 4.24365C6.98852 4.24365 3.1805 7.73227 1.1168 10.3256C-0.182162 11.9579 -0.182163 14.203 1.1168 15.8354C3.1805 18.4287 6.98852 21.9173 12.5408 21.9173C18.0932 21.9173 21.9012 18.4287 23.9649 15.8354Z" fill="#AEAEB2"/>
<path fill-rule="evenodd" clip-rule="evenodd" d="M14.7507 13.0805C14.7507 14.3006 13.7616 15.2897 12.5415 15.2897C11.3213 15.2897 10.3323 14.3006 10.3323 13.0805C10.3323 13.0492 10.3329 13.018 10.3342 12.9869C10.5064 13.0475 10.6916 13.0805 10.8846 13.0805C11.7996 13.0805 12.5415 12.3387 12.5415 11.4236C12.5415 11.2307 12.5085 11.0455 12.4479 10.8733C12.4789 10.872 12.5101 10.8713 12.5415 10.8713C13.7616 10.8713 14.7507 11.8604 14.7507 13.0805ZM16.9599 13.0805C16.9599 15.5207 14.9817 17.4989 12.5415 17.4989C10.1012 17.4989 8.12305 15.5207 8.12305 13.0805C8.12305 10.6403 10.1012 8.66211 12.5415 8.66211C14.9817 8.66211 16.9599 10.6403 16.9599 13.0805Z" fill="#AEAEB2"/>
<path d="M22 1L4 25" stroke="#AEAEB2" stroke-width="2"/>
</svg>
