<svg width="29" height="29" viewBox="0 0 29 29" fill="none" xmlns="http://www.w3.org/2000/svg">
<path d="M11.6102 0H1.02293C0.457804 0 0 0.457802 0 1.02292V11.6102C0 12.1753 0.457804 12.6331 1.02293 12.6331H11.6102C12.1754 12.6331 12.6332 12.1753 12.6332 11.6102V1.02292C12.6332 0.457802 12.1748 0 11.6102 0ZM10.5873 10.5872H2.04586V2.04585H10.5873V10.5872ZM27.9771 0H17.3898C16.8246 0 16.3668 0.457802 16.3668 1.02292V11.6102C16.3668 12.1753 16.8246 12.6331 17.3898 12.6331H27.9771C28.5422 12.6331 29 12.1753 29 11.6102V1.02292C29 0.457802 28.5416 0 27.9771 0ZM26.9541 10.5872H18.4127V2.04585H26.9541V10.5872ZM11.6102 16.3669H1.02293C0.457804 16.3669 0 16.8247 0 17.3898V27.9771C0 28.5422 0.457804 29 1.02293 29H11.6102C12.1754 29 12.6332 28.5422 12.6332 27.9771V17.3898C12.6332 16.8247 12.1748 16.3669 11.6102 16.3669ZM10.5873 26.9542H2.04586V18.4128H10.5873V26.9542ZM27.9771 16.3669H17.3898C16.8246 16.3669 16.3668 16.8247 16.3668 17.3898V27.9771C16.3668 28.5422 16.8246 29 17.3898 29H27.9771C28.5422 29 29 28.5422 29 27.9771V17.3898C29 16.8247 28.5416 16.3669 27.9771 16.3669ZM26.9541 26.9542H18.4127V18.4128H26.9541V26.9542Z" fill="black"/>
</svg>
