<svg width="28" height="12" viewBox="0 0 28 12" fill="none" xmlns="http://www.w3.org/2000/svg">
<path d="M10.708 0H6C4.4087 2.37122e-08 2.88258 0.632141 1.75736 1.75736C0.632141 2.88258 0 4.4087 0 6C0 7.5913 0.632141 9.11742 1.75736 10.2426C2.88258 11.3679 4.4087 12 6 12H12C12.9601 12.0005 13.9064 11.7706 14.7593 11.3295C15.6121 10.8885 16.3467 10.2492 16.9012 9.46539C17.4558 8.68157 17.8141 7.77612 17.9461 6.82509C18.0782 5.87406 17.98 4.90524 17.66 4H16C15.828 4 15.66 4.02 15.5 4.062C15.8373 4.67101 16.0098 5.35751 16.0005 6.05363C15.9911 6.74975 15.8003 7.43137 15.4468 8.03112C15.0933 8.63087 14.5894 9.12797 13.9848 9.47328C13.3803 9.81859 12.6962 10.0001 12 10H6C4.93913 10 3.92172 9.57857 3.17157 8.82843C2.42143 8.07828 2 7.06087 2 6C2 4.93913 2.42143 3.92172 3.17157 3.17157C3.92172 2.42143 4.93913 2 6 2H9.07C9.506 1.248 10.06 0.572 10.71 0H10.708Z" fill="#111AE9"/>
<path d="M16.0002 8.24963e-07C15.0401 -0.00050262 14.0938 0.229427 13.241 0.670473C12.3881 1.11152 11.6535 1.7508 11.099 2.53461C10.5445 3.31843 10.1861 4.22388 10.0541 5.17491C9.92204 6.12594 10.0202 7.09476 10.3402 8H12.5362C12.1851 7.39193 12.0003 6.70216 12.0003 6.00003C12.0003 5.29789 12.1851 4.60812 12.5362 4.00004C12.8873 3.39197 13.3922 2.88702 14.0003 2.53594C14.6083 2.18486 15.2981 2.00002 16.0002 2H22.0002C23.0611 2 24.0785 2.42143 24.8286 3.17157C25.5788 3.92172 26.0002 4.93914 26.0002 6C26.0002 7.06087 25.5788 8.07828 24.8286 8.82843C24.0785 9.57857 23.0611 10 22.0002 10H18.9302C18.4951 10.7508 17.9412 11.4262 17.2902 12H22.0002C22.7881 12 23.5684 11.8448 24.2963 11.5433C25.0243 11.2418 25.6857 10.7998 26.2429 10.2426C26.8 9.68549 27.242 9.02406 27.5435 8.2961C27.845 7.56815 28.0002 6.78793 28.0002 6C28.0002 5.21207 27.845 4.43185 27.5435 3.7039C27.242 2.97595 26.8 2.31451 26.2429 1.75736C25.6857 1.20021 25.0243 0.758252 24.2963 0.456724C23.5684 0.155196 22.7881 8.13222e-07 22.0002 8.24963e-07H16.0002Z" fill="#111AE9"/>
</svg>
