<svg width="38" height="29" viewBox="0 0 38 29" fill="none" xmlns="http://www.w3.org/2000/svg">
<path d="M6.45176 0.320896L31.7475 0.320898C34.8162 0.320898 37.2992 3.02157 37.2992 6.32477L37.2992 22.0959C37.2992 25.3988 34.8162 28.0998 31.7475 28.0998L6.45204 28.0998C3.383 28.0998 0.900003 25.3991 0.900003 22.0959L0.900005 6.32477C0.900005 3.02171 3.38277 0.321134 6.45136 0.320896C6.45149 0.320896 6.45163 0.320896 6.45176 0.320896ZM2.80491 22.0956C2.80491 24.2849 4.44837 26.0525 6.45156 26.0525L31.747 26.0525C33.7502 26.0525 35.3936 24.285 35.3936 22.0956L35.3934 6.3244C35.3934 4.13504 33.7499 2.36747 31.7467 2.36747L6.45129 2.36747C4.44811 2.36747 2.80465 4.13497 2.80465 6.3244L2.80491 22.0956Z" fill="#4E4E4E" stroke="#4E4E4E" stroke-width="0.2"/>
<path d="M14.3199 12.5959L6.93306 7.08487C6.54526 6.7956 6.44771 6.22056 6.71484 5.80057C6.98249 5.38034 7.51354 5.27471 7.90085 5.56398L16.1036 11.684C17.895 13.0212 20.3032 13.0204 22.0944 11.6843L30.2971 5.56427C30.6852 5.275 31.216 5.38035 31.4831 5.80086C31.7502 6.22079 31.6527 6.79588 31.2649 7.08516L23.8787 12.5961L31.7861 21.4757C32.1133 21.843 32.1032 22.4273 31.7643 22.7813C31.5985 22.9543 31.3853 23.0401 31.1721 23.0401C30.9486 23.0401 30.7256 22.9454 30.5584 22.7577L22.4264 13.6261C21.3941 14.2294 20.2466 14.5313 19.0992 14.5313C17.9518 14.5313 16.8046 14.2294 15.772 13.6258L7.64004 22.7574C7.47285 22.9454 7.24958 23.0398 7.02632 23.0398C6.81341 23.0398 6.59998 22.9537 6.43412 22.781C6.09549 22.427 6.08539 21.8424 6.41232 21.4754L14.3199 12.5959Z" fill="#4E4E4E"/>
</svg>
