<svg width="22" height="22" viewBox="0 0 22 22" fill="none" xmlns="http://www.w3.org/2000/svg">
<path d="M9.76512 15.4056L9.76514 15.4056L14.7719 12.515C15.066 12.3452 15.2911 12.0771 15.4073 11.7579C15.5235 11.4386 15.5235 11.0887 15.4073 10.7695L9.76512 15.4056ZM9.76512 15.4056C9.4709 15.5755 9.12628 15.6362 8.79183 15.5772L8.76577 15.7249M9.76512 15.4056L8.76577 15.7249M8.76577 15.7249L8.79183 15.5772C8.45733 15.5182 8.15429 15.3433 7.93586 15.0831C7.71752 14.8228 7.59781 14.4941 7.59781 14.1544V8.37302C7.59781 7.85695 7.87327 7.37994 8.32036 7.12188L8.32038 7.12187M8.76577 15.7249L8.32038 7.12187M8.32038 7.12187C8.76728 6.86384 9.31806 6.86383 9.76518 7.12189M8.32038 7.12187L9.76518 7.12189M9.76518 7.12189L14.772 10.0124C15.066 10.1822 15.2911 10.4504 15.4073 10.7695L9.76518 7.12189ZM19.6351 19.635L19.7411 19.7411L19.635 19.635C18.2191 21.0511 16.2991 21.8476 14.2964 21.85H7.70356C5.70076 21.8477 3.78085 21.0511 2.36496 19.6351L2.25889 19.7411L2.36495 19.635C0.94892 18.2191 0.152379 16.2991 0.15 14.2964L0.15 7.70348C0.152413 5.7009 0.94894 3.78101 2.36482 2.36495C3.78081 0.94906 5.70076 0.152523 7.70342 0.150143L14.2964 0.150143C16.299 0.152509 18.2191 0.948901 19.6352 2.36495C21.0511 3.78094 21.8476 5.7009 21.85 7.70357V14.2964C21.8477 16.2992 21.0511 18.2192 19.6351 19.635ZM20.5126 14.2968V14.2966L20.5128 7.70339V7.70321C20.5109 6.05523 19.8554 4.47521 18.69 3.30981C17.5246 2.14442 15.9448 1.48894 14.2966 1.48703H14.2965L7.70324 1.48703L7.70307 1.48703C6.05508 1.48894 4.47506 2.14442 3.30967 3.30981C2.14427 4.47521 1.48879 6.05528 1.48688 7.70321V7.70339L1.48688 14.2966L1.48688 14.2968C1.48879 15.9448 2.14427 17.5248 3.30967 18.6902C4.47506 19.8556 6.05513 20.5111 7.70307 20.513H7.70324H14.2965H14.2966C15.9448 20.5111 17.5246 19.8556 18.69 18.6902C19.8554 17.5248 20.5107 15.9447 20.5126 14.2968Z" fill="#282828" stroke="#282828" stroke-width="0.3"/>
</svg>
