<svg width="24" height="24" viewBox="0 0 24 24" fill="none" xmlns="http://www.w3.org/2000/svg">
<path d="M12 1.56429L11.9998 1.56429C9.23293 1.56737 6.58061 2.66757 4.6239 4.62388L4.62388 4.62391C2.66767 6.58061 1.56739 9.23293 1.56429 11.9998V12C1.56429 14.7678 2.66381 17.422 4.62085 19.3791C6.5779 21.3363 9.23225 22.4357 12 22.4357C14.7678 22.4357 17.422 21.3362 19.3791 19.3791C21.3363 17.4221 22.4357 14.7677 22.4357 12C22.4357 9.23225 21.3362 6.578 19.3791 4.62086C17.4221 2.66371 14.7677 1.56429 12 1.56429ZM20.3793 20.3793C18.157 22.6015 15.1428 23.85 12.0002 23.85C8.85847 23.8466 5.84611 22.597 3.62456 20.3754C1.40304 18.1539 0.153423 15.1416 0.15 11.9999C0.150021 8.85723 1.39848 5.84301 3.62074 3.62074C5.84303 1.39846 8.85728 0.15 12 0.15C15.1427 0.15 18.157 1.39846 20.3793 3.62074C22.6015 5.84303 23.85 8.85728 23.85 12C23.85 15.1427 22.6015 18.157 20.3793 20.3793Z" fill="#282828" stroke="#282828" stroke-width="0.3"/>
<path d="M5.14287 12.0001C5.14479 10.1821 5.868 8.43913 7.15368 7.1538C8.43901 5.86809 10.182 5.14486 12 5.143V3.42871C9.72746 3.43139 7.54865 4.33522 5.94183 5.94195C4.33501 7.54869 3.43123 9.72758 3.42859 12.0001H5.14287Z" fill="#282828"/>
<path d="M11.9999 20.5714C14.2725 20.5688 16.4513 19.6649 18.0581 18.0582C19.665 16.4515 20.5687 14.2726 20.5714 12H18.8571C18.8552 13.818 18.132 15.561 16.8463 16.8463C15.561 18.132 13.818 18.8553 11.9999 18.8571V20.5714Z" fill="#282828"/>
<path d="M11.1429 7.71456C10.2241 7.71456 9.37539 8.20474 8.91586 9.00028C8.45668 9.79582 8.45668 10.7762 8.91586 11.5717C9.37543 12.3672 10.2241 12.8574 11.1429 12.8574H12.8572C13.3305 12.8574 13.7143 13.2412 13.7143 13.7146C13.7143 14.1879 13.3305 14.5717 12.8572 14.5717H9.42858V16.286H11.1429V17.1431H12.8572V16.286C13.7759 16.286 14.6246 15.7958 15.0842 15.0003C15.5433 14.2047 15.5433 13.2244 15.0842 12.4289C14.6246 11.6333 13.7759 11.1431 12.8572 11.1431H11.1429C10.6695 11.1431 10.2857 10.7593 10.2857 10.286C10.2857 9.81265 10.6695 9.42885 11.1429 9.42885H14.5714V7.71456H12.8572V6.85742H11.1429V7.71456Z" fill="#282828"/>
</svg>
