<svg width="28" height="20" viewBox="0 0 28 20" fill="none" xmlns="http://www.w3.org/2000/svg">
<path d="M4.9157 0.899998L23.0843 0.9C25.2987 0.9 27.1 2.7013 27.1 4.91592L27.1 15.3766C27.1 17.591 25.2987 19.3925 23.0843 19.3925L4.9159 19.3925C2.70128 19.3925 0.899981 17.5912 0.899981 15.3766L0.899982 4.91591C0.899982 2.7014 2.70112 0.900157 4.91541 0.899998C4.9155 0.899998 4.9156 0.899998 4.9157 0.899998ZM2.32453 15.3764C2.32453 16.8048 3.48705 17.9672 4.91555 17.9672L23.0839 17.9672C24.5124 17.9672 25.675 16.8049 25.675 15.3764L25.6748 4.91567C25.6748 3.48718 24.5122 2.3248 23.0837 2.3248L4.91536 2.32479C3.48686 2.32479 2.32434 3.48713 2.32434 4.91567L2.32453 15.3764Z" fill="#282828" stroke="#282828" stroke-width="0.2"/>
<path d="M10.567 9.0755L5.26141 5.42018C4.98287 5.22831 4.91281 4.8469 5.10467 4.56833C5.29692 4.2896 5.67834 4.21954 5.95652 4.4114L11.8481 8.47071C13.1348 9.35765 14.8645 9.35711 16.151 8.4709L22.0426 4.41159C22.3213 4.21973 22.7026 4.2896 22.8944 4.56852C23.0863 4.84705 23.0162 5.22849 22.7377 5.42037L17.4326 9.0757L23.1121 14.9653C23.3471 15.2089 23.3398 15.5965 23.0964 15.8313C22.9773 15.946 22.8242 16.0029 22.6711 16.0029C22.5105 16.0029 22.3503 15.9401 22.2303 15.8156L16.3895 9.75887C15.648 10.159 14.8239 10.3593 13.9997 10.3593C13.1756 10.3593 12.3516 10.159 11.61 9.75867L5.7692 15.8155C5.64912 15.9401 5.48875 16.0027 5.32839 16.0027C5.17547 16.0027 5.02217 15.9456 4.90305 15.8311C4.65983 15.5963 4.65258 15.2086 4.88739 14.9651L10.567 9.0755Z" fill="#282828"/>
</svg>
