<svg width="23" height="25" viewBox="0 0 23 25" fill="none" xmlns="http://www.w3.org/2000/svg">
<path d="M8.01663 3.54914H8.01661C8.02892 1.6731 9.58264 0.15 11.5 0.15C13.4254 0.15 14.9835 1.68522 14.9835 3.57143L14.9835 3.57216L14.9871 4.32135L14.9876 4.42009L15.0785 4.45869C15.6901 4.71838 16.266 5.04656 16.7994 5.43388L16.877 5.49019L16.9607 5.44348L17.6438 5.06222L17.6439 5.06215C19.3069 4.13181 21.4273 4.6974 22.3838 6.32598L22.5131 6.25002L22.3838 6.32599C23.3434 7.95993 22.7743 10.0532 21.1092 10.9982L21.1092 10.9982L21.1832 11.1286L21.1092 10.9982L21.1091 10.9982L21.1089 10.9984L21.1081 10.9988L21.1049 11.0006L21.0926 11.0076L21.0465 11.0338L20.8874 11.1241L20.4524 11.3713L20.366 11.4204L20.3775 11.5191C20.4149 11.841 20.4337 12.1682 20.4337 12.5C20.4337 12.831 20.4149 13.1575 20.3783 13.4804L20.3671 13.5786L20.453 13.6276L21.1089 14.0017L21.1092 14.0018C22.7743 14.9468 23.3434 17.0401 22.3838 18.674L22.3838 18.6741C21.4372 20.2868 19.3494 20.8568 17.6935 19.9653L17.6239 19.9263L16.9598 19.5548L16.8759 19.5079L16.7982 19.5645C16.2686 19.9508 15.6935 20.28 15.0787 20.5444L14.9886 20.5832L14.988 20.6813L14.9835 21.4277V21.4286C14.9835 23.3148 13.4254 24.85 11.5001 24.85C9.57478 24.85 8.01665 23.3148 8.01665 21.4286L8.01665 21.4278L8.013 20.6787L8.01252 20.5799L7.92164 20.5413C7.62106 20.4137 7.19078 20.1702 6.83008 19.9547C6.65098 19.8476 6.49111 19.7488 6.37602 19.6767C6.3185 19.6406 6.27221 19.6113 6.24034 19.591L6.20378 19.5676L6.19438 19.5616L6.19202 19.5601L6.19145 19.5597L6.19132 19.5596L6.19129 19.5596L6.10997 19.6857L6.19129 19.5596L6.11527 19.5106L6.03643 19.5549L5.37603 19.9264L5.31638 19.96C3.6589 20.8589 1.56487 20.2899 0.616425 18.674L0.616405 18.674C-0.343246 17.04 0.225882 14.9468 1.89099 14.0018L1.89101 14.0018L1.81695 13.8713L1.89101 14.0018L1.89103 14.0018L1.89108 14.0017L1.89128 14.0016L1.89209 14.0012L1.89526 13.9994L1.90757 13.9924L1.95366 13.9662L2.11279 13.8758L2.54781 13.6286L2.63413 13.5796L2.62266 13.4809C2.58523 13.159 2.56649 12.8317 2.56649 12.5C2.56649 12.169 2.58522 11.8425 2.62189 11.5196L2.63305 11.4214L2.54722 11.3724L1.87187 10.9868C1.87185 10.9868 1.87183 10.9868 1.87182 10.9868C0.221557 10.0368 -0.339925 7.95292 0.616343 6.32595L0.616388 6.32588C1.57631 4.69046 3.70971 4.12735 5.37631 5.07321L5.37704 5.07362L6.04025 5.44511L6.1242 5.49213L6.20194 5.43543C6.73151 5.0492 7.30668 4.71995 7.92143 4.45555L8.0116 4.41678L8.01217 4.31863L8.01661 3.5493L8.01663 3.54914ZM18.4244 18.6639L18.4254 18.6638C19.3578 19.1644 20.5335 18.8447 21.0691 17.933C21.6127 17.008 21.291 15.8264 20.3539 15.2902L20.3538 15.2901L19.6926 14.9124L19.6921 14.9122C19.1178 14.5869 18.7967 13.958 18.8714 13.3154L18.8715 13.3147C18.9013 13.0476 18.917 12.7752 18.917 12.4998C18.917 12.2254 18.9012 11.9535 18.8706 11.6871L18.8706 11.687C18.7959 11.0416 19.117 10.4127 19.6913 10.0856C19.6913 10.0856 19.6913 10.0856 19.6914 10.0855L20.3489 9.71236L20.2749 9.5819L20.349 9.71235C21.2891 9.17874 21.6136 7.99352 21.0691 7.06669C20.5285 6.14516 19.3324 5.8288 18.396 6.35181L18.3952 6.35228L18.3952 6.35229L18.3951 6.35232L18.3949 6.35243L18.3941 6.3529L18.3908 6.35475L18.3781 6.36192L18.3307 6.38876L18.1672 6.48114C18.0351 6.55566 17.8671 6.65016 17.723 6.73037L17.722 6.73097C17.1434 7.05917 16.4218 7.01589 15.896 6.62649L15.8948 6.6256C15.4563 6.30769 14.9803 6.03597 14.4773 5.82234L14.4769 5.82217C13.8637 5.56391 13.4676 4.97211 13.4668 4.31921V3.57122C13.4668 2.50024 12.5833 1.6355 11.5001 1.6355C10.4217 1.6355 9.54024 2.49346 9.5334 3.55867V3.55964V3.55965V3.55971V3.55994L9.5334 3.56087V3.56455L9.5334 3.57883L9.53335 3.63234L9.53295 3.81686C9.53249 3.96593 9.53158 4.15539 9.52976 4.3177H9.52975V4.31938C9.52975 4.96811 9.13745 5.55724 8.52868 5.81688L8.52849 5.81647C8.02343 6.03426 7.5475 6.30589 7.11331 6.62333L7.11272 6.62376C6.57896 7.01799 5.85637 7.0615 5.27739 6.73349L4.6161 6.35866C3.6774 5.82593 2.47468 6.14139 1.93114 7.06666L1.93114 7.06667C1.39054 7.98702 1.70645 9.16348 2.63713 9.70457L2.63832 9.70525L3.30781 10.0863L3.30792 10.0864C3.88245 10.4127 4.20344 11.0417 4.12881 11.6843L4.12873 11.685C4.09893 11.952 4.0832 12.2245 4.0832 12.4998C4.0832 12.7742 4.09894 13.0462 4.1296 13.3126L4.12961 13.3127C4.20428 13.958 3.8832 14.587 3.3089 14.9141C3.30886 14.9141 3.30883 14.9141 3.3088 14.9141L2.65048 15.2873L2.1556 15.5678H2.27117C1.63337 16.17 1.46807 17.1449 1.93105 17.933C2.47464 18.8583 3.67736 19.1737 4.61601 18.641L4.61609 18.6409L4.61691 18.6405L4.62012 18.6386L4.63261 18.6316L4.67934 18.6052L4.84042 18.5143C4.97048 18.441 5.1358 18.3481 5.27724 18.2692L5.2782 18.2687C5.85676 17.9405 6.57835 17.9838 7.10417 18.3732L7.10539 18.3741C7.54386 18.692 8.01984 18.9637 8.52288 19.1773L8.52329 19.1775C9.13646 19.4357 9.53259 20.0275 9.53333 20.6804V21.4284C9.53333 22.4994 10.4168 23.3642 11.5 23.3642C12.5833 23.3642 13.4668 22.4994 13.4668 21.4284V21.4284V21.4281L13.4668 21.4272V21.4236L13.4668 21.4095L13.4668 21.3567L13.4672 21.1747C13.4677 21.0278 13.4686 20.8412 13.4704 20.682V20.6803C13.4704 20.0289 13.8658 19.4382 14.4705 19.1837L14.4717 19.1832C14.9767 18.9654 15.4526 18.6938 15.8868 18.3763L15.8874 18.3759C16.4212 17.9817 17.1438 17.9381 17.7227 18.2661C17.7227 18.2661 17.7227 18.2661 17.7228 18.2662L18.3841 18.641L18.4244 18.6639ZM14.4186 5.9604C14.9109 6.16947 15.3771 6.43553 15.8067 6.74704C16.3808 7.17214 17.1664 7.21858 17.796 6.86143L14.4186 5.9604ZM6.19991 12.4998C6.19991 9.6289 8.57296 7.29266 11.5001 7.29266C14.4272 7.29266 16.8002 9.6289 16.8002 12.4998C16.8002 15.3707 14.4272 17.707 11.5001 17.707C8.57296 17.707 6.19991 15.3707 6.19991 12.4998ZM14.9201 12.4998C14.9201 10.6404 13.3854 9.13552 11.5001 9.13552C9.61473 9.13552 8.07997 10.6404 8.07997 12.4998C8.07997 14.3592 9.61473 15.8641 11.5001 15.8641C13.3854 15.8641 14.9201 14.3592 14.9201 12.4998Z" fill="#282828" stroke="#282828" stroke-width="0.3"/>
</svg>
