<svg width="23" height="20" viewBox="0 0 23 20" fill="none" xmlns="http://www.w3.org/2000/svg">
<path d="M22.7589 9.45597L18.6517 5.60987C18.3303 5.30886 17.8111 5.30886 17.4903 5.60987C17.1688 5.91088 17.1688 6.39701 17.4903 6.69749L20.1953 9.23056H8.21408C7.7597 9.23056 7.39242 9.5745 7.39242 10C7.39242 10.4255 7.7597 10.7694 8.21408 10.7694H20.1953L17.4903 13.3025C17.1688 13.6035 17.1688 14.0897 17.4903 14.3901C17.6507 14.5404 17.861 14.6155 18.0713 14.6155C18.2815 14.6155 18.4918 14.5404 18.6523 14.3901L22.7594 10.544C23.0803 10.243 23.0803 9.75689 22.7588 9.45587L22.7589 9.45597ZM14.7852 13.0767C14.3309 13.0767 13.9636 13.4206 13.9636 13.8461V16.1539C13.9636 17.4261 12.8577 18.4617 11.4991 18.4617H4.10654C2.748 18.4617 1.6421 17.4261 1.6421 16.1539V3.8461C1.6421 2.57391 2.74797 1.5383 4.10654 1.5383H11.4991C12.8577 1.5383 13.9636 2.57388 13.9636 3.8461V6.1539C13.9636 6.5794 14.3309 6.92334 14.7852 6.92334C15.2396 6.92334 15.6069 6.5794 15.6069 6.1539V3.8461C15.6069 1.72553 13.7643 0 11.4998 0H4.10716C1.84265 0 0 1.72553 0 3.8461V16.1539C0 18.2745 1.84265 20 4.10716 20H11.4998C13.7643 20 15.6069 18.2745 15.6069 16.1539V13.8461C15.6069 13.4206 15.2396 13.0767 14.7852 13.0767Z" fill="#111AE9"/>
</svg>
