<svg width="13" height="13" viewBox="0 0 13 13" fill="none" xmlns="http://www.w3.org/2000/svg">
<path d="M6.37315 2.86035C5.32831 2.86035 4.46631 3.70922 4.46631 4.76719C4.46631 5.0415 4.68832 5.25039 4.94951 5.25039C5.21071 5.25039 5.43272 5.02838 5.43272 4.76719C5.43272 4.25784 5.85069 3.83987 6.36004 3.83987C6.89553 3.83987 7.28736 4.21857 7.28736 4.72791V4.76709C7.28736 5.05441 7.20901 5.73357 6.2817 5.87725C6.04666 5.91643 5.86373 6.11229 5.86373 6.36046V7.67951C5.86373 7.95383 6.08574 8.16272 6.34693 8.16272C6.60811 8.16272 6.83014 7.94071 6.83014 7.67951V6.75219C8.05782 6.37349 8.25368 5.31552 8.25368 4.72784C8.27991 3.68309 7.41801 2.86037 6.37317 2.86037L6.37315 2.86035Z" fill="#E91135"/>
<path d="M6.37345 8.75C6.0208 8.75 5.74658 9.03732 5.74658 9.37687C5.74658 9.71641 6.03391 10.0037 6.37345 10.0037C6.71299 10.0037 7.00032 9.71641 7.00032 9.37687C7.00032 9.03732 6.71299 8.75 6.37345 8.75Z" fill="#E91135"/>
<path d="M6.37338 0C2.86019 0 0 2.86019 0 6.37338C0 9.88658 2.86019 12.7468 6.37338 12.7468C9.88658 12.7467 12.7468 9.88658 12.7468 6.37338C12.7468 2.86019 9.88658 0 6.37338 0ZM6.37338 11.7803C3.39565 11.7803 0.966456 9.35111 0.966456 6.37338C0.966456 3.39565 3.39565 0.966455 6.37338 0.966455C9.35111 0.966455 11.7803 3.39565 11.7803 6.37338C11.7672 9.35111 9.35111 11.7803 6.37338 11.7803Z" fill="#E91135"/>
</svg>
