<svg width="15" height="15" viewBox="0 0 15 15" fill="none" xmlns="http://www.w3.org/2000/svg">
<path d="M12.2093 5.58137C10.668 5.58137 9.41866 4.33197 9.41866 2.79068C9.41866 1.2494 10.668 0 12.2093 0C13.7506 0 15 1.2494 15 2.79068C15 4.33197 13.7506 5.58137 12.2093 5.58137ZM13.9535 5.93049V12.2093C13.9535 13.7506 12.7041 15 11.1628 15H2.79067C1.24939 15 0 13.7506 0 12.2093V3.83715C0 2.29586 1.24939 1.04646 2.79067 1.04646H9.06948C8.76476 1.45209 8.54646 1.92632 8.44181 2.44174H2.79061C2.01999 2.44174 1.39522 3.06652 1.39522 3.83715V12.2093C1.39522 12.9799 2.01999 13.6047 2.79061 13.6047H11.1628C11.9334 13.6047 12.5581 12.9799 12.5581 12.2093V6.5581C13.0736 6.45345 13.5478 6.23514 13.9534 5.93043L13.9535 5.93049Z" fill="#6C6868"/>
</svg>
