<svg width="25" height="30" viewBox="0 0 25 30" fill="none" xmlns="http://www.w3.org/2000/svg">
<path d="M15.9461 8.81157L10.6266 14.1311L8.66675 12.1713H8.66652C8.47232 11.9782 8.20938 11.8699 7.93555 11.8699C7.66149 11.8699 7.39878 11.9782 7.20434 12.1713C7.00806 12.3662 6.89765 12.6312 6.89765 12.9076C6.89765 13.1842 7.00806 13.4492 7.20434 13.6439L9.89002 16.3296H9.89025C10.0842 16.5275 10.3493 16.6395 10.6263 16.6407C10.9036 16.6395 11.1686 16.5275 11.3626 16.3296L17.4078 10.2844H17.4081C17.6044 10.0897 17.7148 9.82467 17.7148 9.54805C17.7148 9.27144 17.6044 9.00642 17.4081 8.81175C17.2136 8.61871 16.9509 8.51015 16.6769 8.51015C16.403 8.51015 16.1401 8.61871 15.9459 8.81175L15.9461 8.81157ZM23.2048 9.11224C22.9569 8.83772 22.7477 8.5308 22.5827 8.19983C22.5273 7.81467 22.5273 7.42347 22.5827 7.03831C22.6991 6.16015 22.5047 5.26853 22.0329 4.5186C21.4381 3.83414 20.6177 3.38534 19.7206 3.25338C19.3579 3.1726 19.0086 3.03974 18.6837 2.85943C18.4126 2.59764 18.1821 2.2972 17.9992 1.96758C17.5849 1.15211 16.8993 0.506819 16.0602 0.142459C15.1938 -0.0505831 14.2872 0.0670031 13.4988 0.474383C13.1187 0.628772 12.7157 0.719966 12.3062 0.744041C11.9079 0.698906 11.5193 0.590582 11.1552 0.422534C10.3668 0.0151547 9.46016 -0.102431 8.59397 0.0906103C7.75491 0.454935 7.06909 1.10026 6.65472 1.91573C6.4721 2.24534 6.24132 2.54579 5.97027 2.80758C5.64529 2.98789 5.296 3.12076 4.9333 3.20153C4.0139 3.33764 3.17626 3.80611 2.5795 4.5186C2.11703 5.29099 1.94435 6.20228 2.09204 7.09016C2.14736 7.47532 2.14736 7.86652 2.09204 8.25168C1.927 8.58267 1.71776 8.88962 1.46986 9.16409C0.808093 9.78858 0.385899 10.6251 0.277344 11.5285C0.360668 12.4483 0.768747 13.3085 1.42844 13.9549C1.67634 14.2295 1.88558 14.5364 2.05062 14.8673C2.10594 15.2525 2.10594 15.6437 2.05062 16.0289C1.90294 16.9167 2.07561 17.8283 2.53785 18.6004C3.14338 19.2937 3.97989 19.7432 4.89189 19.8656C5.25459 19.9467 5.6039 20.0793 5.92885 20.2596C6.1999 20.5214 6.43044 20.8221 6.61331 21.1514C7.02763 21.9669 7.7132 22.6124 8.55232 22.9766C8.7935 23.0548 9.04557 23.0935 9.29905 23.0907C9.92562 23.0506 10.5399 22.8997 11.1137 22.6446C11.4906 22.4699 11.8933 22.3579 12.3063 22.313C12.7051 22.3623 13.0935 22.4743 13.4573 22.6446C14.2457 23.0523 15.1523 23.1696 16.0185 22.9766C16.8645 22.6021 17.5513 21.941 17.9578 21.11C18.1404 20.7804 18.3712 20.48 18.6422 20.2182C18.9672 20.0379 19.3165 19.9052 19.6792 19.8242C20.5764 19.6923 21.3967 19.2435 21.9915 18.559C22.4538 17.7869 22.6267 16.8753 22.479 15.9875C22.4237 15.6023 22.4237 15.2111 22.479 14.8259C22.644 14.4949 22.8533 14.188 23.1012 13.9135C23.7609 13.267 24.1689 12.4069 24.2523 11.4871C24.1796 10.5962 23.8025 9.75754 23.1841 9.11225L23.2048 9.11224ZM21.5975 12.6484C21.1585 13.106 20.8068 13.6402 20.5606 14.2247C20.3976 14.8468 20.352 15.4938 20.4256 16.1326C20.4898 16.5525 20.458 16.9816 20.3324 17.3874C19.9812 17.63 19.5812 17.7927 19.1607 17.8645C18.5346 17.9939 17.9372 18.2364 17.3979 18.5799C16.915 19.0003 16.5141 19.5067 16.2158 20.0731C15.9565 20.4775 15.635 20.9754 15.3862 21.0582C14.971 21.0489 14.5633 20.9462 14.1937 20.7575C13.6021 20.4694 12.9621 20.2937 12.3063 20.239C11.6538 20.2772 11.014 20.4356 10.4189 20.7057C10.0398 20.899 9.62103 21.002 9.1954 21.0064C8.94657 20.9235 8.62506 20.4256 8.36582 20.0212C8.05288 19.4708 7.64155 18.9822 7.15245 18.5799C6.61314 18.2364 6.01594 17.9938 5.38961 17.8645C4.96904 17.7927 4.56905 17.63 4.21796 17.3874C4.0925 16.9816 4.06056 16.5525 4.12468 16.1326C4.20523 15.4949 4.16657 14.848 4.01057 14.2247C3.76429 13.6402 3.41268 13.106 2.9736 12.6484C2.65209 12.2544 2.28914 11.8084 2.28914 11.5286C2.28914 11.2485 2.65208 10.8131 2.9736 10.4189C3.41269 9.96127 3.7643 9.42707 4.01057 8.84281C4.17352 8.22063 4.21911 7.57344 4.14528 6.93461C4.08116 6.51474 4.1131 6.08584 4.23879 5.68006C4.58737 5.43309 4.98848 5.26967 5.41044 5.20301C6.03819 5.08427 6.63904 4.85234 7.18371 4.51855C7.67118 4.11464 8.08202 3.62646 8.39684 3.07723C8.65609 2.67286 8.97759 2.17495 9.22642 2.04026H9.34053C9.69907 2.09489 10.0481 2.19974 10.3775 2.35135C10.9853 2.62679 11.6397 2.78489 12.3063 2.81799C12.9581 2.78327 13.5979 2.62842 14.1937 2.36177C14.5729 2.16826 14.9916 2.06549 15.4172 2.06086C15.666 2.14373 15.9667 2.62078 16.2468 3.09783C16.5544 3.63715 16.9546 4.11815 17.4289 4.51859C17.9682 4.86209 18.5656 5.10466 19.1917 5.23404C19.6139 5.30093 20.0148 5.46412 20.3636 5.71109C20.4891 6.11686 20.521 6.546 20.4569 6.96588C20.3902 7.59499 20.4395 8.23128 20.602 8.84285C20.8483 9.42707 21.1999 9.96129 21.639 10.4189C21.9605 10.8129 22.3234 11.2589 22.3234 11.5286C22.3234 11.7983 21.8982 12.2545 21.5767 12.6484L21.5975 12.6484Z" fill="#111AE9"/>
<path d="M19.7199 19.8653C19.3572 19.9463 19.0079 20.079 18.683 20.2593L18.6311 20.3111V27.1758L12.6789 25.1848C12.462 25.1227 12.232 25.1227 12.0153 25.1848L6.02166 27.1758V20.259C5.69668 20.0787 5.34739 19.946 4.98469 19.865C4.71503 19.7924 4.43519 19.7095 4.16555 19.6162C4.08685 19.7556 4.04403 19.9123 4.04102 20.0724V28.617C4.04264 28.9508 4.20466 29.2635 4.47664 29.457C4.74814 29.6489 5.09514 29.6991 5.40991 29.5917L12.306 27.269L19.2952 29.5917C19.4012 29.6323 19.5137 29.6535 19.6271 29.654C19.9021 29.654 20.1657 29.5448 20.3604 29.3503C20.5548 29.1559 20.6641 28.892 20.6641 28.617V20.0724C20.6611 19.9123 20.6182 19.7556 20.5395 19.6162C20.2699 19.7095 19.99 19.7924 19.7204 19.865L19.7199 19.8653Z" fill="#111AE9"/>
</svg>
