<svg width="22" height="22" viewBox="0 0 22 22" fill="none" xmlns="http://www.w3.org/2000/svg">
<path d="M17.3883 16.9326V17.0326H17.4883H19.3219V18.1217H16.2992V15.099H17.3883V16.9326Z" fill="#111AE9" stroke="white" stroke-width="0.2"/>
<path d="M15.3687 11.8739V12.0054L15.4954 11.9703C15.9248 11.8514 16.3769 11.7875 16.8438 11.7875C19.6317 11.7875 21.9 14.0558 21.9 16.8438C21.9 19.6317 19.6317 21.9 16.8438 21.9C14.0558 21.9 11.7875 19.6317 11.7875 16.8438C11.7875 15.8884 12.0538 14.9944 12.516 14.2315L12.608 14.0797H12.4305H0.1V2.67812H4.51172H4.61172V2.57812V0.952503L4.91274 0.801993C4.9694 0.773661 6.33464 0.1 7.73438 0.1C9.13411 0.1 10.4993 0.773661 10.556 0.801993L10.857 0.952503V2.57812V2.67812H10.957H15.3687V11.8739ZM5.76399 1.61854L5.70078 1.64355V1.71153V2.57812V2.67812H5.80078H9.66797H9.76797V2.57812V1.71149V1.6435L9.70475 1.6185C9.26956 1.44636 8.49366 1.18906 7.73438 1.18906C6.97522 1.18906 6.19954 1.44623 5.76399 1.61854ZM1.28906 3.76719H1.18906V3.86719V6.55192V6.63538L1.27117 6.6503L7.71649 7.82219L7.73438 7.82544L7.75226 7.82219L14.1976 6.6503L14.2797 6.63538V6.55192V3.86719V3.76719H14.1797H1.28906ZM1.30695 7.76373L1.18906 7.7423V7.86212V12.8907V12.9907H1.28906H13.5372H13.5735L13.6014 12.9673C13.7993 12.8015 14.0098 12.6505 14.2315 12.5161L14.2797 12.4869V12.4306V7.86216V7.74234L14.1618 7.76378L8.36102 8.81845L8.27891 8.83337V8.91683V10.2125H7.18984V8.91679V8.83333L7.10773 8.8184L1.30695 7.76373ZM12.8766 16.8438C12.8766 19.0313 14.6562 20.8109 16.8438 20.8109C19.0313 20.8109 20.8109 19.0313 20.8109 16.8438C20.8109 14.6562 19.0313 12.8766 16.8438 12.8766C14.6562 12.8766 12.8766 14.6562 12.8766 16.8438Z" fill="#111AE9" stroke="white" stroke-width="0.2"/>
</svg>
